<svg id="ePrx9iumCzF1" xmlns="http://www.w3.org/2000/svg" xmlns:xlink="http://www.w3.org/1999/xlink" viewBox="0 0 470 186" shape-rendering="geometricPrecision" text-rendering="geometricPrecision" project-id="b1556ac821704bc0b659653db9372278" export-id="3a286d8b0c4d47ffac277ce40f20be61" cached="true"><defs><linearGradient id="ePrx9iumCzF4-fill" x1="117.5" y1="-2.5" x2="117.5" y2="77.5" spreadMethod="pad" gradientUnits="userSpaceOnUse" gradientTransform="translate(0 0)"><stop id="ePrx9iumCzF4-fill-0" offset="0%" stop-color="#d24031"/><stop id="ePrx9iumCzF4-fill-1" offset="100%" stop-color="#b23a2d"/></linearGradient><linearGradient id="ePrx9iumCzF8-fill" x1="117.5" y1="-2.5" x2="117.5" y2="77.5" spreadMethod="pad" gradientUnits="userSpaceOnUse" gradientTransform="translate(0 0)"><stop id="ePrx9iumCzF8-fill-0" offset="0%" stop-color="#d24031"/><stop id="ePrx9iumCzF8-fill-1" offset="100%" stop-color="#b23a2d"/></linearGradient><linearGradient id="ePrx9iumCzF22-fill" x1="164.727" y1="236" x2="164.727" y2="294" spreadMethod="pad" gradientUnits="userSpaceOnUse" gradientTransform="translate(0 0)"><stop id="ePrx9iumCzF22-fill-0" offset="0%" stop-color="#fef9a5"/><stop id="ePrx9iumCzF22-fill-1" offset="55.1724%" stop-color="#f1d503"/><stop id="ePrx9iumCzF22-fill-2" offset="100%" stop-color="#f2d800"/></linearGradient><linearGradient id="ePrx9iumCzF23-stroke" x1="164.727" y1="236" x2="164.727" y2="294" spreadMethod="pad" gradientUnits="userSpaceOnUse" gradientTransform="translate(0 0)"><stop id="ePrx9iumCzF23-stroke-0" offset="0%" stop-color="#f6e269"/><stop id="ePrx9iumCzF23-stroke-1" offset="93.6782%" stop-color="#fbc943"/></linearGradient><linearGradient id="ePrx9iumCzF31-fill" x1="232.727" y1="236" x2="232.727" y2="294" spreadMethod="pad" gradientUnits="userSpaceOnUse" gradientTransform="translate(0 0)"><stop id="ePrx9iumCzF31-fill-0" offset="0%" stop-color="#fef9a5"/><stop id="ePrx9iumCzF31-fill-1" offset="55.1724%" stop-color="#f1d503"/><stop id="ePrx9iumCzF31-fill-2" offset="100%" stop-color="#f2d800"/></linearGradient><linearGradient id="ePrx9iumCzF32-stroke" x1="232.727" y1="236" x2="232.727" y2="294" spreadMethod="pad" gradientUnits="userSpaceOnUse" gradientTransform="translate(0 0)"><stop id="ePrx9iumCzF32-stroke-0" offset="0%" stop-color="#f6e269"/><stop id="ePrx9iumCzF32-stroke-1" offset="93.6782%" stop-color="#fbc943"/></linearGradient><linearGradient id="ePrx9iumCzF40-fill" x1="300.727" y1="236" x2="300.727" y2="294" spreadMethod="pad" gradientUnits="userSpaceOnUse" gradientTransform="translate(0 0)"><stop id="ePrx9iumCzF40-fill-0" offset="0%" stop-color="#fef9a5"/><stop id="ePrx9iumCzF40-fill-1" offset="55.1724%" stop-color="#f1d503"/><stop id="ePrx9iumCzF40-fill-2" offset="100%" stop-color="#f2d800"/></linearGradient><linearGradient id="ePrx9iumCzF41-stroke" x1="300.727" y1="236" x2="300.727" y2="294" spreadMethod="pad" gradientUnits="userSpaceOnUse" gradientTransform="translate(0 0)"><stop id="ePrx9iumCzF41-stroke-0" offset="0%" stop-color="#f6e269"/><stop id="ePrx9iumCzF41-stroke-1" offset="93.6782%" stop-color="#fbc943"/></linearGradient></defs><g transform="translate(-1.999999-228)"><g id="ePrx9iumCzF3" transform="matrix(0 0 0 0 237 369.000031)"><rect width="235" height="75" rx="17.5" ry="17.5" transform="translate(119.5 331.5)" fill="url(#ePrx9iumCzF4-fill)" stroke="#543115" stroke-width="5"/><g transform="translate(-2.643951 0)" mask="url(#ePrx9iumCzF7)"><rect id="ePrx9iumCzF6" width="31.608865" height="159.053845" rx="0" ry="0" transform="matrix(.931811 0.931811-.943077 0.943077 163.095718 233.95401)" fill="#fff" fill-opacity="0.5" stroke-width="0"/><mask id="ePrx9iumCzF7" mask-type="luminance" x="-150%" y="-150%" height="400%" width="400%"><rect width="235" height="75" rx="17.5" ry="17.5" transform="translate(119.5 331.5)" fill="url(#ePrx9iumCzF8-fill)" stroke="#543115" stroke-width="5"/></mask></g><rect id="ePrx9iumCzF9" width="210" height="22" rx="11" ry="11" transform="translate(132 340)" opacity="0" fill="#fff" fill-opacity="0.5"/><g transform="translate(-5.846763 0.000016)"><path d="M52.9188,49.364c-1.54,1.092-4.06,1.988-6.216,1.988-6.44,0-11.284-3.724-11.284-11.536s4.844-11.564,11.284-11.564c2.212,0,4.676.896,6.16,1.96c1.092.784,1.848,2.548.616,4.508-1.456,2.296-3.444,1.904-4.172,1.428-.868-.56-1.68-1.064-2.604-1.064-2.352,0-4.144,1.736-4.144,4.732s1.792,4.676,4.144,4.676c1.4,0,2.044-.532,3.052-1.232.812-.56,2.548-.504,3.836,1.232c1.652,2.212.504,4.032-.672,4.872Zm14.4461,1.988c-6.048,0-10.864-4.032-10.864-11.536c0-7.532,4.816-11.564,10.864-11.564s10.864,4.032,10.864,11.564c0,7.504-4.816,11.536-10.864,11.536Zm0-6.748c2.296,0,3.724-1.876,3.724-4.788c0-2.94-1.4-4.816-3.724-4.816s-3.724,1.848-3.724,4.816c0,2.94,1.4,4.788,3.724,4.788Zm13.1164,2.884c0-4.088,1.008-12.768,2.072-16.548.588-2.072,2.044-2.688,3.752-2.688c1.764,0,2.968,1.036,3.668,2.408.924,1.792,1.988,4.9,3.248,9.1h.112c1.26-4.2,2.464-7.392,3.276-9.1.672-1.4,1.876-2.408,3.6397-2.408c1.708,0,3.164.616,3.752,2.688c1.064,3.78,2.072,12.46,2.072,16.548c0,2.044-.672,3.612-2.688,3.836s-2.94-.728-3.4157-2.688c-.364-1.484-.784-5.096-1.036-8.82h-.14c-.924,3.808-1.932,7.252-2.688,9.044-.56,1.344-1.4,1.932-2.828,1.932s-2.268-.588-2.828-1.932c-.728-1.708-1.792-5.404-2.688-9.044h-.14c-.252,3.724-.672,7.336-1.036,8.82-.476,1.96-1.4,2.912-3.416,2.688s-2.688-1.792-2.688-3.836Zm28.5077-15.82c.28-2.128,1.54-3.08,3.332-3.248c1.932-.168,5.04-.224,6.972.028c4.732.616,7.784,3.304,7.784,7.84c0,4.564-3.248,7.392-6.832,7.924-1.484.224-3.192.28-4.256.14c0,1.428-.14,2.716-.308,3.752-.336,2.016-1.344,3.248-3.388,3.248s-3.024-1.232-3.276-3.248c-.56-4.48-.56-12.32-.028-16.436Zm11.2,4.592c0-1.792-2.212-2.184-4.34-1.736v3.612c2.212.448,4.34-.112,4.34-1.876Zm9.281-5.04c.28-2.184,1.792-2.968,3.332-2.968s2.996.784,3.332,2.968c.504,3.248.616,10.276.28,12.964c1.82-.224,4.732-.168,7.028.196c2.016.308,3.192,1.288,3.192,3.332s-1.176,3.136-3.22,3.388c-3.108.392-7.56.364-10.304,0-2.044-.28-3.276-1.344-3.612-3.36-.644-3.892-.56-12.404-.028-16.52Zm34.335,13.748c1.12.168,2.492.728,2.492,2.94c0,2.24-1.4,2.856-2.52,3.08-2.52.476-8.848.448-11.312.224-2.044-.196-3.108-1.372-3.444-3.388-.616-3.64-.504-12.292-.028-16.1.308-2.436,1.736-3.164,3.472-3.36c1.456-.168,9.184-.168,11.256.252c1.12.224,2.576.728,2.576,2.94c0,2.24-1.456,2.828-2.576,3.052-1.932.392-6.104.392-7.952.168l.056,1.988c2.24-.168,4.34-.196,6.412,0c1.12.112,2.688.728,2.688,2.94c0,2.24-1.568,2.968-2.688,3.08-2.212.224-4.312.224-6.44.056l-.084,2.016c1.428-.224,6.02-.224,8.092.112Zm19.464-16.464c2.016.168,3.36,1.148,3.36,3.192s-1.344,3.024-3.36,3.192c-.952.084-1.876.14-2.772.168.308,3.948.224,9.296-.252,13.048-.252,2.016-1.26,3.248-3.304,3.248s-3.052-1.232-3.304-3.248c-.476-3.78-.56-9.016-.252-13.048-.924-.028-1.848-.112-2.772-.168-2.184-.168-3.332-1.372-3.332-3.192s1.148-3.024,3.332-3.192c4.116-.308,8.176-.364,12.656,0Zm20.103,16.464c1.12.168,2.492.728,2.492,2.94c0,2.24-1.4,2.856-2.52,3.08-2.52.476-8.848.448-11.312.224-2.044-.196-3.108-1.372-3.444-3.388-.616-3.64-.504-12.292-.028-16.1.308-2.436,1.736-3.164,3.472-3.36c1.456-.168,9.184-.168,11.256.252c1.12.224,2.576.728,2.576,2.94c0,2.24-1.456,2.828-2.576,3.052-1.932.392-6.104.392-7.952.168l.056,1.988c2.24-.168,4.34-.196,6.412,0c1.12.112,2.688.728,2.688,2.94c0,2.24-1.568,2.968-2.688,3.08-2.212.224-4.312.224-6.44.056l-.084,2.016c1.428-.224,6.02-.224,8.092.112Z" transform="translate(122.205362 329.182418)" fill="#fff"/><g transform="translate(122.205362 329.182418)" mask="url(#ePrx9iumCzF14)"><path d="M52.9188,49.364l1.7353,2.4472.0084-.006-1.7437-2.4412Zm-.056-19.152l1.7497-2.437-.0016-.0011-1.7481,2.4381Zm.616,4.508l2.5336,1.6066.0063-.0101L53.4788,34.72Zm-4.172,1.428l1.6418-2.5109-.0077-.005-.0077-.005-1.6264,2.5209Zm.448,7.112l-1.7032-2.4697-.008.0056L49.7548,43.26Zm3.836,1.232l-2.4093,1.7875.0057.0076l2.4036-1.7951Zm-.672,4.872l-1.7353-2.4472c-1.0692.7582-2.9896,1.4352-4.4807,1.4352v3v3c2.821,0,5.9406-1.115,7.9513-2.5408L52.9188,49.364Zm-6.216,1.988v-3c-2.6591,0-4.6698-.7636-5.9951-2.0176-1.2949-1.2252-2.2889-3.2518-2.2889-6.5184h-3-3c0,4.5454,1.428,8.2868,4.1652,10.8767c2.7066,2.5609,6.3379,3.6593,10.1188,3.6593v-3ZM35.4188,39.816h3c0-3.267.9944-5.3031,2.2929-6.5361c1.3273-1.2605,3.3377-2.0279,5.9911-2.0279v-3-3c-3.7866,0-7.4182,1.1086-10.1228,3.6771-2.7336,2.596-4.1612,6.3419-4.1612,10.8869h3Zm11.284-11.564v3c1.5485,0,3.4072.6777,4.412,1.3981l1.748-2.4381l1.7481-2.4381c-1.9632-1.4076-5.0326-2.5219-7.9081-2.5219v3Zm6.16,1.96l-1.7496,2.437c-.0221-.0159-.0205-.0196-.0125-.0077.006.009.0093.0175.0109.0248.0006.0026.0061.0246-.0039.078-.0102.0541-.0444.1816-.1688.3794L53.4788,34.72l2.5399,1.5965c2.1388-3.4026.8748-6.9038-1.4062-8.5415l-1.7497,2.437Zm.616,4.508l-2.5335-1.6066c-.1758.2772-.3043.3755-.338.3988-.0303.021-.0228.0092.015.0028.0274-.0046.052-.0032.0769.0022.0133.0029.0361.0089.0699.0228.031.0126.0933.0407.1795.0971L49.3068,36.148l-1.6417,2.5109c.9659.6316,2.4042,1.0334,3.9523.7731c1.692-.2846,3.2576-1.3118,4.395-3.1054L53.4788,34.72Zm-4.172,1.428l1.6264-2.5209c-.7276-.4694-2.2779-1.5431-4.2304-1.5431v3v3c-.1,0-.1013-.0309.0715.0485.2043.0937.4537.2445.9061.5364l1.6264-2.5209Zm-2.604-1.064v-3c-1.9435,0-3.8066.7348-5.1642,2.214-1.3446,1.465-1.9798,3.4215-1.9798,5.518h3h3c0-.8995.2608-1.309.4003-1.461.1264-.1378.3353-.271.7437-.271v-3Zm-4.144,4.732h-3c0,2.0982.6368,4.0522,1.9975,5.5091c1.3703,1.4673,3.233,2.1669,5.1465,2.1669v-3-3c-.4385,0-.6477-.1404-.7614-.2621-.1234-.1321-.3826-.5161-.3826-1.4139h-3Zm4.144,4.676v3c2.4698,0,3.8497-1.1335,4.7632-1.7679L49.7548,43.26l-1.7112-2.4641c-.3051.2119-.4623.3261-.6502.4505-.1625.1076-.2527.1574-.3098.1847-.047.0224-.0762.0317-.1073.0386-.0347.0077-.1167.0223-.2735.0223v3Zm3.052-1.232l1.7032,2.4696c-.2175.1501-.3947.1934-.4796.2066-.0942.0147-.1473.0046-.1597.0017-.0167-.0038.0076-.0018.0654.0372.0572.0386.1646.1253.2974.3044l2.4093-1.7875l2.4093-1.7875c-2.0364-2.7448-5.5278-3.5836-7.9485-1.9141L49.7548,43.26Zm3.836,1.232l-2.4036,1.7951c.1932.2588.2248.397.2279.4114.0015.0072-.0015-.0179.0054-.0433.0033-.012-.0026.0182-.0515.0821-.0506.0662-.1211.1335-.1939.1855l1.7437,2.4412l1.7437,2.4412c.9869-.7049,2.092-1.8997,2.5477-3.5754.4966-1.8262.098-3.7739-1.2157-5.5329L53.5908,44.492Zm13.7741,6.86v-3c-2.3547,0-4.2697-.7757-5.5863-2.0829-1.3024-1.2931-2.2777-3.3634-2.2777-6.4531h-3-3c0,4.4143,1.4326,8.112,4.0503,10.7109c2.6033,2.5848,6.1203,3.8251,9.8137,3.8251v-3ZM56.5009,39.816h3c0-3.1067.9772-5.1841,2.2796-6.4795c1.316-1.309,3.2299-2.0845,5.5844-2.0845v-3-3c-3.6936,0-7.2117,1.2405-9.8157,3.8305-2.6176,2.6036-4.0483,6.3082-4.0483,10.7335h3Zm10.864-11.564v3c2.3545,0,4.2683.7755,5.5843,2.0845c1.3024,1.2954,2.2797,3.3728,2.2797,6.4795h3h3c0-4.4253-1.4307-8.1299-4.0484-10.7335-2.604-2.59-6.1221-3.8305-9.8156-3.8305v3Zm10.864,11.564h-3c0,3.0897-.9754,5.16-2.2777,6.4531-1.3167,1.3072-3.2317,2.0829-5.5863,2.0829v3v3c3.6933,0,7.2103-1.2403,9.8137-3.8251c2.6176-2.5989,4.0503-6.2966,4.0503-10.7109h-3Zm-10.864,4.788v3c2.0543,0,3.8706-.8816,5.0964-2.4671c1.1629-1.5042,1.6276-3.4122,1.6276-5.3209h-3-3c0,1.0033-.2494,1.4893-.3745,1.6511-.0552.0715-.0917.091-.1075.0986-.0166.0081-.084.0383-.242.0383v3Zm3.724-4.788h3c0-1.9041-.449-3.8199-1.6086-5.3343C71.2514,32.8767,69.426,32,67.3649,32v3v3c.1704,0,.2407.0323.2548.0391.0123.006.0446.0221.0967.0902.1215.1586.3725.6508.3725,1.6867h3ZM67.3649,35v-3c-2.046,0-3.875.8579-5.1118,2.4664-1.1658,1.5161-1.6122,3.4372-1.6122,5.3496h3h3c0-1.0556.2535-1.5425.3687-1.6924.0489-.0635.0782-.0777.09-.0833.0144-.007.0881-.0403.2653-.0403v-3Zm-3.724,4.816h-3c0,1.9041.4491,3.8188,1.6159,5.33c1.2364,1.6012,3.0631,2.458,5.1081,2.458v-3-3c-.1772,0-.2518-.0333-.2674-.0408-.0132-.0063-.043-.0212-.0916-.0842-.1141-.1478-.365-.6271-.365-1.663h-3ZM82.5533,30.94l-2.886-.819-.0018.0061l2.8878.8129Zm7.42-.28L87.301,32.0234l.0059.0115L89.9733,30.66Zm3.248,9.1l-2.8734.862.6413,2.138h2.2321v-3Zm.112,0v3h2.2321l.6414-2.138-2.8735-.862Zm3.276-9.1l-2.7046-1.2982-.0048.0101L96.6093,30.66Zm7.3917.28l2.888-.8129-.002-.0061-2.886.819ZM99.9693,48.636l2.9157-.708-.002-.0067-2.9137.7147Zm-1.036-8.82l2.9927-.2025-.189-2.7975h-2.8037v3Zm-.14,0v-3h-2.3591l-.5563,2.2926l2.9154.7074Zm-2.688,9.044l-2.7641-1.1661-.0051.0123L96.1053,48.86Zm-5.656,0l2.7693-1.1538-.0047-.0113-.0048-.0112L90.4493,48.86Zm-2.688-9.044l2.9131-.7171-.562-2.2829h-2.3511v3Zm-.14,0v-3h-2.8038l-.1893,2.7975l2.9931.2025Zm-1.036,8.82l-2.9136-.7147-.0016.0067l2.9152.708Zm-3.416,2.688l.3313-2.9817-.3313,2.9817Zm-2.688-3.836h3c0-3.8802.9865-12.2772,1.9598-15.7351L82.5533,30.94l-2.8878-.8129c-1.1546,4.1021-2.1842,13.0651-2.1842,17.3609h3Zm2.072-16.548l2.8861.819c.0687-.2421.1369-.3517.1608-.3857.0066-.0093.0113-.0151.014-.0183.0014-.0016.0024-.0026.003-.0033s.0009-.0009.0009-.0009-.0001.0001-.0004.0004-.0007.0005-.001.0008c-.0009.0006-.0011.0007-.0003.0002.0005-.0003.1622-.1002.6889-.1002v-3-3c-1.1812,0-2.6015.2081-3.9031,1.0338-1.3689.8684-2.2729,2.207-2.7349,3.8352l2.886.819Zm3.752-2.688v3c.2577,0,.3955.0644.5013.1392.1332.0942.3168.284.4944.6322L89.9733,30.66l2.6723-1.3634c-1.0646-2.0868-3.1568-4.0446-6.3403-4.0446v3Zm3.668,2.408l-2.6664,1.3749c.7774,1.5076,1.7708,4.3533,3.041,8.5871l2.8734-.862l2.8735-.862c-1.2498-4.1662-2.3844-7.5365-3.4551-9.6129L89.9733,30.66Zm3.248,9.1v3h.112v-3-3h-.112v3Zm.112,0l2.8735.862c1.2396-4.1319,2.3929-7.1614,3.1119-8.6739L96.6093,30.66l-2.7094-1.2881c-.9049,1.9035-2.1596,5.258-3.4401,9.5261l2.8735.862Zm3.276-9.1l2.7046,1.2982c.1584-.33.3234-.4969.4349-.5755.0877-.0619.2229-.1307.5002-.1307v-3-3c-3.1554,0-5.2849,1.9029-6.3442,4.1098L96.6093,30.66Zm3.6397-2.408v3c.527,0,.689.0999.689.1002.001.0005.001.0004,0-.0002c0-.0003-.001-.0006-.001-.0008s0-.0004,0-.0004s0,.0003,0,.0009c.001.0007.002.0017.003.0033.003.0032.008.009.014.0183.024.034.093.1436.161.3857l2.886-.819l2.886-.819c-.462-1.6282-1.366-2.9668-2.735-3.8352-1.301-.8257-2.721-1.0338-3.903-1.0338v3Zm3.752,2.688l-2.887.8129c.973,3.4579,1.959,11.8549,1.959,15.7351h3h3c0-4.2958-1.029-13.2588-2.184-17.3609l-2.888.8129Zm2.072,16.548h-3c0,.3544-.03.6159-.069.7974-.039.1811-.077.2362-.066.219.019-.0315.075-.099.161-.151.079-.0483.091-.0261-.045-.0111l.331,2.9817.332,2.9817c1.846-.2052,3.372-1.1143,4.316-2.6331.843-1.356,1.04-2.9068,1.04-4.1846h-3Zm-2.688,3.836l-.331-2.9817c-.256.0284-.336.0029-.302.0108.019.0046.062.017.118.0445.057.028.111.0635.158.1028.096.0807.105.1284.063.0465-.047-.0909-.124-.2796-.206-.6189l-2.9157.708-2.9152.708c.2971,1.2235.8531,2.6928,2.1179,3.7536c1.367,1.1465,3.018,1.3777,4.545,1.2081l-.332-2.9817Zm-3.4157-2.688l2.9137-.7147c-.295-1.2014-.704-4.5741-.957-8.3078l-2.9927.2025-2.9931.2025c.2513,3.7143.6822,7.5656,1.1155,9.3322l2.9136-.7147Zm-1.036-8.82v-3h-.14v3v3h.14v-3Zm-.14,0l-2.9154-.7074c-.9208,3.7947-1.8823,7.0342-2.5367,8.5853L96.1053,48.86l2.7641,1.1661c.8577-2.0329,1.9126-5.6814,2.8396-9.5027l-2.9157-.7074Zm-2.688,9.044l-2.7692-1.1538c-.0692.166-.1162.2335-.1236.2435-.0027.0038.0047-.0068.0239-.0257.0196-.0193.047-.0429.0816-.0667.0348-.0238.0694-.0429.1007-.057.0309-.0139.0519-.0201.0583-.0218.0106-.0028-.0451.0135-.1997.0135v3v3c1.1288,0,2.3423-.2363,3.4383-.9893c1.0835-.7444,1.738-1.7784,2.159-2.7889L96.1053,48.86Zm-2.828,1.932v-3c-.1545,0-.2103-.0163-.1997-.0135.0064.0017.0274.0079.0583.0218.0314.0141.066.0332.1007.057.0346.0238.062.0474.0817.0667.0192.0189.0266.0295.0238.0257-.0074-.01-.0544-.0775-.1235-.2435L90.4493,48.86l-2.7692,1.1538c.421,1.0105,1.0755,2.0445,2.1589,2.7889c1.0961.753,2.3095.9893,3.4383.9893v-3Zm-2.828-1.932l2.7598-1.1763c-.6208-1.4565-1.6355-4.9318-2.5347-8.5848l-2.9131.7171-2.913.7171c.8928,3.627,2.0061,7.5437,2.8413,9.5032L90.4493,48.86Zm-2.688-9.044v-3h-.14v3v3h.14v-3Zm-.14,0l-2.9931-.2025c-.2527,3.7337-.6618,7.1064-.9565,8.3078l2.9136.7147l2.9137.7147c.4333-1.7666.8641-5.6179,1.1155-9.3322l-2.9932-.2025Zm-1.036,8.82l-2.9152-.708c-.0824.3393-.1595.528-.2061.6189-.0419.0819-.0332.0342.063-.0465.0469-.0393.101-.0748.1577-.1028.056-.0275.0986-.0399.1182-.0445.0336-.0079-.0467.0176-.3023-.0108l-.3313,2.9817-.3313,2.9817c1.527.1696,3.1777-.0616,4.5447-1.2081c1.2647-1.0608,1.8207-2.5301,2.1179-3.7536l-2.9153-.708Zm-3.416,2.688l.3313-2.9817c-.1355-.015-.124-.0372-.0445.0111.0857.052.1413.1195.1609.151.0107.0172-.0276-.0379-.0667-.219-.0391-.1815-.069-.443-.069-.7974h-3-3c0,1.2778.1972,2.8286,1.0403,4.1846.9444,1.5188,2.47,2.4279,4.3164,2.6331l.3313-2.9817ZM108.989,31.668l-2.974-.3914-.001.0068l2.975.3846Zm3.332-3.248l-.26-2.9887-.01.0009-.01.0009.28,2.9869Zm6.972.028l-.388,2.9748.001.0001.387-2.9749Zm.952,15.764l-.44-2.9675-.007.0011.447,2.9664Zm-4.256.14l.392-2.9744-3.392-.4462v3.4206h3Zm-.308,3.752l2.959.4932.003-.013-2.962-.4802Zm-6.664,0l2.977-.3721v0l-2.977.3721Zm6.832-13.58l-.618-2.9356-2.382.5014v2.4342h3Zm0,3.612h-3v2.4533l2.405.487.595-2.9403Zm-6.86-6.468l2.975.3914c.036-.274.092-.4225.123-.4875.027-.0579.04-.0616.026-.0492-.039.0356.04-.0738.488-.1158l-.28-2.9869-.28-2.9869c-1.344.126-2.791.5766-3.977,1.6622-1.207,1.104-1.839,2.5836-2.049,4.1813l2.974.3914Zm3.332-3.248l.26,2.9887c1.824-.1586,4.693-.1987,6.324.0141l.388-2.9748.388-2.9748c-2.233-.2912-5.58-.2193-7.62-.0419l.26,2.9887Zm6.972.028l-.387,2.9749c1.92.2499,3.197.8819,3.963,1.6268.715.6945,1.208,1.6959,1.208,3.2383h3h3c0-2.9936-1.033-5.6042-3.027-7.5417-1.942-1.8871-4.557-2.9071-7.369-3.2732l-.388,2.9749Zm7.784,7.84h-3c0,2.8637-1.937,4.6099-4.272,4.9565l.44,2.9675.441,2.9675c4.833-.7174,9.391-4.6272,9.391-10.8915h-3Zm-6.832,7.924l-.447-2.9664c-1.308.1973-2.718.2241-3.417.132l-.392,2.9744-.391,2.9744c1.428.1879,3.434.1027,5.095-.148l-.448-2.9664Zm-4.256.14h-3c0,1.2357-.121,2.3601-.269,3.2718l2.961.4802l2.962.4802c.188-1.1603.346-2.6119.346-4.2322h-3Zm-.308,3.752l-2.959-.4932c-.112.6724-.276.8138-.236.772.03-.0303.07-.0529.087-.0595.007-.0027-.07.0287-.28.0287v3v3c1.672,0,3.262-.5293,4.476-1.7668c1.14-1.1618,1.648-2.6444,1.871-3.988l-2.959-.4932Zm-3.388,3.248v-3c-.211,0-.282-.0317-.264-.025.029.0111.084.0432.129.0908.038.0397.018.0374-.024-.0679-.044-.1107-.101-.3071-.14-.618l-2.977.3721-2.977.3721c.17,1.359.631,2.8775,1.768,4.0741c1.211,1.2744,2.82,1.8018,4.485,1.8018v-3Zm-3.276-3.248l2.977-.3721c-.53-4.2419-.527-11.8273-.029-15.6793l-2.976-.3846-2.975-.3846c-.566,4.38-.563,12.4746.026,17.1927l2.977-.3721ZM120.189,36.26h3c0-1.1147-.363-2.1785-1.097-3.0385-.696-.815-1.573-1.2711-2.348-1.5228-1.496-.4857-3.156-.396-4.513-.1103l.618,2.9356.618,2.9356c.35-.0736.676-.1063.948-.1054.282.001.434.0377.476.0511.044.0143-.147-.0358-.362-.2873-.11-.1295-.203-.2861-.265-.4582-.06-.1699-.075-.3115-.075-.3998h3Zm-4.34-1.736h-3v3.612h3h3v-3.612h-3Zm0,3.612l-.595,2.9403c1.452.2941,3.149.3249,4.652-.2413.777-.2927,1.612-.7891,2.262-1.6044.678-.8506,1.021-1.8836,1.021-2.9706h-3-3c0-.205.077-.5065.288-.7699.182-.2283.346-.2819.314-.2701-.031.0119-.168.0528-.431.0616-.254.0085-.567-.0154-.915-.0859l-.596,2.9403ZM129.47,31.22l2.976.3846v-.0031L129.47,31.22Zm6.664,0l-2.965.4562.001.0038l2.964-.46Zm.28,12.964l-2.976-.3721-.478,3.8199l3.821-.4703-.367-2.9775Zm7.028.196l-.469,2.963.008.0013.008.0013.453-2.9656Zm-.028,6.72l-.367-2.9775-.008.0011.375,2.9764Zm-10.304,0l-.407,2.9723.013.0016.394-2.9739Zm-3.612-3.36l-2.959.4897v.0035l2.959-.4932Zm-.028-16.52l2.976.3815c.029-.229.078-.3263.087-.3431.007-.0117-.004.0085-.032.0303-.049.0382.013-.0367.301-.0367v-3-3c-1.251,0-2.715.3171-3.975,1.2933-1.317,1.0202-2.106,2.5247-2.332,4.2932l2.975.3815Zm3.332-2.968v3c.281,0,.324.0707.267.0263-.027-.0217-.03-.0353-.014-.0058.02.035.076.1533.114.4037l2.965-.4562l2.966-.4562c-.264-1.7149-1.034-3.1932-2.33-4.2082-1.253-.9823-2.708-1.3036-3.968-1.3036v3Zm3.332,2.968l-2.964.46c.22,1.4207.372,3.8283.42,6.2908.049,2.4771-.013,4.7244-.152,5.8411l2.976.3721l2.977.3721c.197-1.5713.247-4.182.198-6.7029-.05-2.5355-.207-5.2659-.49-7.0932l-2.965.46Zm.28,12.964l.367,2.9775c1.511-.1859,4.14-.1438,6.192.1815l.469-2.963.47-2.963c-2.54-.4027-5.735-.4726-7.864-.2105l.366,2.9775Zm7.028.196l-.453,2.9656c.32.0488.519.1117.631.1591.105.0446.106.0641.067.0253-.047-.0462-.075-.099-.082-.119-.003-.0077.029.0752.029.301h3h3c0-1.6312-.491-3.2267-1.732-4.452-1.168-1.1533-2.665-1.6406-4.007-1.8456l-.453,2.9656Zm3.192,3.332h-3c0,.2255-.032.3239-.037.3373-.001.0036.014-.0334.053-.0725.076-.0783-.003.0718-.603.1457l.367,2.9775.367,2.9775c1.445-.1781,2.975-.7,4.151-1.8983c1.219-1.2422,1.702-2.8474,1.702-4.4672h-3Zm-3.22,3.388l-.375-2.9764c-2.858.3604-7.051.3319-9.534.0025L133.11,51.1l-.394,2.9739c3.005.3986,7.715.4261,11.074.0025L143.414,51.1Zm-10.304,0l.408-2.9722c-.606-.0831-.797-.2405-.831-.272-.013-.0117-.148-.1217-.229-.609l-2.96.4932-2.959.4932c.255,1.5287.904,2.9587,2.102,4.053c1.176,1.0745,2.624,1.5891,4.062,1.786L133.11,51.1Zm-3.612-3.36l2.96-.4897c-.584-3.5287-.518-11.7349-.012-15.6457L129.47,31.22l-2.975-.3846c-.558,4.3212-.66,13.139.044,17.3943l2.959-.4897Zm34.307-2.772l-.48,2.9613.018.0029.017.0026.445-2.9668Zm-.028,6.02l.557,2.9479.016-.003.016-.0032-.589-2.9417Zm-11.312.224l-.286,2.9863.007.0007.008.0007.271-2.9877Zm-3.444-3.388l2.959-.4932-.001-.0074-2.958.5006Zm-.028-16.1l-2.976-.3763-.001.0042l2.977.3721Zm3.472-3.36l.337,2.9811.007-.0009-.344-2.9802Zm11.256.252l-.596,2.9402.008.0015.588-2.9417Zm0,5.992l-.588-2.9418-.008.0017.596,2.9401Zm-7.952.168l.361-2.9782-3.458-.4191.098,3.4818l2.999-.0845Zm.056,1.988l-2.999.0845.089,3.1422l3.135-.2351-.225-2.9916Zm6.412,0l.299-2.9851-.008-.0008-.008-.0008-.283,2.9867Zm0,6.02l-.298-2.9851-.004.0004.302,2.9847Zm-6.44.056l.236-2.9907-3.104-.245-.129,3.1108l2.997.1249Zm-.084,2.016l-2.997-.1249-.153,3.6557l3.615-.567-.465-2.9638Zm8.092.112l-.445,2.9668c.065.0097.116.0199.155.0297s.062.0175.07.0206c.016.0063-.044-.0141-.128-.0901-.042-.038-.081-.0826-.115-.1311s-.053-.089-.063-.113c-.02-.0487.018.0129.018.2571h3h3c0-1.7811-.584-3.3477-1.812-4.46-1.12-1.0151-2.429-1.326-3.235-1.4468l-.445,2.9668Zm2.492,2.94h-3c0,.2472-.038.3223-.026.2918.006-.0142.019-.0434.044-.0803.025-.0367.054-.0702.084-.0983.059-.0559.094-.0649.059-.0497-.018.0076-.049.0193-.095.0329-.047.0137-.104.0278-.174.0419l.588,2.9417.589,2.9417c.789-.1578,2.063-.5192,3.149-1.5429c1.186-1.1179,1.782-2.672,1.782-4.4788h-3Zm-2.52,3.08l-.557-2.9479c-.971.1835-2.942.298-5.153.3226-2.16.024-4.243-.0396-5.33-.1384l-.272,2.9877-.271,2.9877c1.377.1252,3.689.1876,5.94.1626c2.199-.0244,4.651-.1339,6.2-.4264l-.557-2.9479Zm-11.312.224l.287-2.9863c-.254-.0243-.391-.0708-.452-.0968-.052-.0228-.063-.0363-.063-.0366-.003-.0032-.039-.0389-.089-.1492-.052-.1163-.117-.3105-.168-.6123l-2.959.4932-2.959.4932c.234,1.4022.776,2.8468,1.906,3.9915c1.161,1.175,2.65,1.74,4.211,1.8896l.286-2.9863Zm-3.444-3.388l2.958-.5006c-.262-1.547-.392-4.3983-.381-7.4762.01-3.0436.156-6.0212.372-7.7511l-2.977-.3721-2.977-.3721c-.259,2.0781-.408,5.3305-.418,8.4749-.011,3.1101.111,6.4048.465,8.4978l2.958-.5006Zm-.028-16.1l2.976.3763c.044-.344.113-.513.143-.5735.024-.0488.027-.039.004-.0192-.031.0251.09-.0953.686-.1625l-.337-2.9811-.336-2.9811c-1.141.1288-2.602.4704-3.857,1.5175-1.327,1.1066-2.03,2.6656-2.255,4.4473l2.976.3763Zm3.472-3.36l.344,2.9802c.503-.058,2.602-.107,5.013-.075c2.455.0326,4.599.1442,5.303.287l.596-2.9402.596-2.9402c-1.367-.2772-4.124-.3756-6.415-.406-2.335-.031-4.828.004-5.781.114l.344,2.9802Zm11.256.252l-.588,2.9417c.096.0193.175.0374.241.0552s.113.0334.143.0452c.065.0248.033.0227-.036-.0365-.036-.0307-.076-.0713-.113-.1209-.037-.05-.061-.0962-.076-.1309-.031-.0722.005-.037.005.1862h3h3c0-1.8493-.652-3.4144-1.919-4.4966-1.116-.9526-2.403-1.252-3.068-1.3851l-.589,2.9417Zm2.576,2.94h-3c0,.2337-.037.2924-.018.2471.008-.021.025-.0547.053-.0938.028-.0389.058-.0721.087-.0981.056-.0508.082-.0531.03-.0317-.025.0103-.063.0242-.118.0398-.054.0156-.12.0313-.198.047l.588,2.9417.589,2.9417c.75-.15,2.028-.4908,3.129-1.4849c1.22-1.1013,1.858-2.6629,1.858-4.5088h-3Zm-2.576,3.052l-.596-2.9401c-.678.1375-1.97.2348-3.453.2554-1.453.0201-2.808-.0365-3.542-.1255l-.361,2.9782-.361,2.9782c1.114.135,2.77.1904,4.347.1685c1.549-.0214,3.308-.1201,4.563-.3746l-.597-2.9401Zm-7.952.168l-2.999.0845.056,1.988l2.999-.0845l2.999-.0845-.056-1.988-2.999.0845Zm.056,1.988l.225,2.9916c2.127-.1596,4.049-.1804,5.905-.0049l.282-2.9867.283-2.9867c-2.289-.2165-4.567-.1814-6.919-.0049l.224,2.9916Zm6.412,0l-.298,2.9851c.04.004.078.0099.112.0172.034.0072.059.0148.075.0205s.019.0079.01.0033c-.009-.0049-.03-.0177-.058-.0414-.03-.0244-.062-.0568-.092-.0965-.015-.0195-.028-.039-.039-.058-.012-.0189-.02-.0359-.026-.0498-.013-.029-.013-.0379-.009-.0174.004.0214.013.0778.013.177h3h3c0-1.9066-.721-3.4909-2-4.5597-1.159-.968-2.49-1.2755-3.389-1.3654l-.299,2.9851Zm2.688,2.94h-3c0,.1048-.009.1708-.015.2047-.007.0333-.011.0398-.006.0271.005-.013.017-.0356.036-.0624.02-.0265.041-.0492.061-.0671.039-.0349.058-.0385.037-.03-.01.0039-.026.0089-.045.0135-.02.0046-.039.0075-.054.0091l.298,2.9851.299,2.9851c1.004-.1004,2.336-.4809,3.466-1.4914c1.221-1.0928,1.923-2.6745,1.923-4.5737h-3Zm-2.688,3.08l-.302-2.9847c-2.016.2041-3.934.2053-5.902.05l-.236,2.9907-.236,2.9907c2.289.1807,4.57.1819,6.978-.062l-.302-2.9847Zm-6.44.056l-2.997-.1249-.084,2.016l2.997.1249l2.998.1249.084-2.016-2.998-.1249Zm-.084,2.016l.465,2.9638c.445-.0698,1.728-.1319,3.313-.1179c1.556.0137,3.034.0976,3.834.2274l.48-2.9613.48-2.9613c-1.271-.2062-3.126-.2903-4.741-.3046-1.586-.014-3.313.0359-4.296.1901l.465,2.9638Zm27.556-16.352l.249-2.9896-.006-.0005-.243,2.9901Zm0,6.384l-.249-2.9896-.007.0006-.007.0006.263,2.9884Zm-2.772.168l-.093-2.9985-3.142.0981.244,3.1337l2.991-.2333Zm-.252,13.048l-2.976-.3776-.001.0055l2.977.3721Zm-6.608,0l2.977-.3721v-.0027l-2.977.3748Zm-.252-13.048l2.992.2285.239-3.132-3.14-.0951-.091,2.9986Zm-2.772-.168l-.23,2.9912.025.0018.024.0015.181-2.9945Zm0-6.384l-.224-2.9916-.006.0004.23,2.9912Zm12.656,0l-.249,2.9896c.297.0248.494.0738.609.1152.111.04.121.0635.086.0321-.044-.0388-.082-.0947-.101-.1387-.014-.0348.015.0122.015.1938h3h3c0-1.7371-.603-3.3646-1.933-4.5439-1.242-1.1012-2.792-1.5223-4.178-1.6377l-.249,2.9896Zm3.36,3.192h-3c0,.1816-.029.2286-.015.1937.019-.0439.057-.0998.101-.1386.035-.0314.025-.0079-.086.0321-.115.0414-.312.0904-.609.1152l.249,2.9896.249,2.9896c1.386-.1154,2.936-.5365,4.178-1.6377c1.33-1.1793,1.933-2.8068,1.933-4.5439h-3Zm-3.36,3.192l-.263-2.9884c-.899.0793-1.767.1317-2.602.1579l.093,2.9985.094,2.9985c.956-.0298,1.937-.0894,2.942-.1781l-.264-2.9884Zm-2.772.168l-2.991.2333c.294,3.7688.211,8.9106-.237,12.4371l2.976.3776l2.976.3776c.505-3.9775.589-9.5317.267-13.6589l-2.991.2333Zm-.252,13.048l-2.977-.3721c-.079.6385-.233.7437-.164.6717.041-.0431.091-.0708.112-.0791.012-.0042-.064.0275-.275.0275v3v3c1.664,0,3.271-.5256,4.486-1.7876c1.147-1.192,1.623-2.7108,1.795-4.0883l-2.977-.3721Zm-3.304,3.248v-3c-.211,0-.286-.0317-.275-.0275.022.0083.071.036.113.0791.069.072-.085-.0332-.165-.6717l-2.977.3721-2.977.3721c.173,1.3775.649,2.8963,1.796,4.0883c1.215,1.262,2.822,1.7876,4.485,1.7876v-3Zm-3.304-3.248l2.977-.3748c-.448-3.5562-.532-8.5884-.237-12.4447l-2.992-.2285-2.991-.2285c-.321,4.2077-.237,9.6475.267,13.6513l2.976-.3748Zm-.252-13.048l.091-2.9986c-.871-.0264-1.629-.1001-2.681-.1639l-.182,2.9945-.181,2.9945c.796.0482,1.886.1425,2.862.1721l.091-2.9986Zm-2.772-.168l.23-2.9912c-.604-.0464-.694-.2051-.614-.1266.037.0359.061.0779.069.0991.005.0144-.017-.0333-.017-.1733h-3-3c0,1.5674.513,3.1472,1.746,4.3568c1.2,1.1775,2.776,1.7048,4.356,1.8264l.23-2.9912Zm-3.332-3.192h3c0-.14.022-.1877.017-.1733-.008.0212-.032.0632-.069.0991-.08.0785.01-.0802.614-.1266l-.23-2.9912-.23-2.9912c-1.58.1216-3.156.6489-4.356,1.8264-1.233,1.2096-1.746,2.7894-1.746,4.3568h3Zm3.332-3.192l.224,2.9916c3.988-.2984,7.89-.3508,12.189-.0015l.243-2.9901.243-2.9901c-4.66-.3787-8.878-.3191-13.123-.0015l.224,2.9916Zm32.759,16.464l-.481,2.9613.018.0029.018.0026.445-2.9668Zm-.028,6.02l.556,2.9479.016-.003.016-.0032-.588-2.9417Zm-11.312.224l-.287,2.9863.008.0007.007.0007.272-2.9877Zm-3.444-3.388l2.959-.4932-.001-.0074-2.958.5006Zm-.028-16.1l-2.977-.3763v.0042l2.977.3721Zm3.472-3.36l.336,2.9811.007-.0009-.343-2.9802Zm11.256.252l-.596,2.9402.007.0015.589-2.9417Zm0,5.992l-.589-2.9418-.008.0017.597,2.9401Zm-7.952.168l.361-2.9782-3.458-.4191.098,3.4818l2.999-.0845Zm.056,1.988l-2.999.0845.088,3.1422l3.135-.2351-.224-2.9916Zm6.412,0l.298-2.9851-.008-.0008-.008-.0008-.282,2.9867Zm0,6.02l-.299-2.9851-.004.0004.303,2.9847Zm-6.44.056l.236-2.9907-3.104-.245-.13,3.1108l2.998.1249Zm-.084,2.016l-2.998-.1249-.152,3.6557l3.614-.567-.464-2.9638Zm8.092.112l-.445,2.9668c.064.0097.115.0199.154.0297.04.0097.062.0175.07.0206.016.0063-.043-.0141-.127-.0901-.042-.038-.082-.0826-.116-.1311s-.053-.089-.063-.113c-.019-.0487.019.0129.019.2571h3h3c0-1.7811-.584-3.3477-1.812-4.46-1.121-1.0151-2.43-1.326-3.235-1.4468l-.445,2.9668Zm2.492,2.94h-3c0,.2472-.039.3223-.027.2918.006-.0142.02-.0434.045-.0803.025-.0367.054-.0702.084-.0983.059-.0559.094-.0649.058-.0497-.018.0076-.048.0193-.095.0329-.046.0137-.104.0278-.174.0419l.589,2.9417.588,2.9417c.789-.1578,2.064-.5192,3.15-1.5429c1.185-1.1179,1.782-2.672,1.782-4.4788h-3Zm-2.52,3.08l-.557-2.9479c-.972.1835-2.943.298-5.154.3226-2.159.024-4.243-.0396-5.33-.1384l-.271,2.9877-.272,2.9877c1.377.1252,3.689.1876,5.94.1626c2.199-.0244,4.652-.1339,6.2-.4264l-.556-2.9479Zm-11.312.224l.286-2.9863c-.253-.0243-.391-.0708-.451-.0968-.053-.0228-.063-.0363-.064-.0366-.003-.0032-.038-.0389-.088-.1492-.053-.1163-.118-.3105-.168-.6123l-2.959.4932-2.96.4932c.234,1.4022.776,2.8468,1.907,3.9915c1.16,1.175,2.65,1.74,4.21,1.8896l.287-2.9863Zm-3.444-3.388l2.958-.5006c-.262-1.547-.392-4.3983-.382-7.4762.01-3.0436.156-6.0212.372-7.7511l-2.976-.3721-2.977-.3721c-.26,2.0781-.408,5.3305-.419,8.4749-.01,3.1101.111,6.4048.466,8.4978l2.958-.5006Zm-.028-16.1l2.976.3763c.043-.344.112-.513.142-.5735.024-.0488.028-.039.004-.0192-.03.0251.09-.0953.686-.1625l-.336-2.9811-.337-2.9811c-1.14.1288-2.602.4704-3.857,1.5175-1.326,1.1066-2.029,2.6656-2.255,4.4473l2.977.3763Zm3.472-3.36l.343,2.9802c.503-.058,2.602-.107,5.014-.075c2.455.0326,4.598.1442,5.303.287l.596-2.9402.596-2.9402c-1.368-.2772-4.125-.3756-6.416-.406-2.334-.031-4.827.004-5.78.114l.344,2.9802Zm11.256.252l-.589,2.9417c.097.0193.175.0374.242.0552.066.0179.112.0334.143.0452.064.0248.032.0227-.037-.0365-.036-.0307-.075-.0713-.112-.1209-.037-.05-.062-.0962-.077-.1309-.031-.0722.006-.037.006.1862h3h3c0-1.8493-.653-3.4144-1.92-4.4966-1.115-.9526-2.402-1.252-3.068-1.3851l-.588,2.9417Zm2.576,2.94h-3c0,.2337-.038.2924-.019.2471.009-.021.026-.0547.053-.0938.028-.0389.058-.0721.087-.0981.057-.0508.083-.0531.031-.0317-.025.0103-.064.0242-.118.0398-.055.0156-.12.0313-.199.047l.589,2.9417.588,2.9417c.75-.15,2.029-.4908,3.13-1.4849c1.22-1.1013,1.858-2.6629,1.858-4.5088h-3Zm-2.576,3.052l-.597-2.9401c-.677.1375-1.97.2348-3.452.2554-1.454.0201-2.809-.0365-3.542-.1255l-.361,2.9782-.361,2.9782c1.114.135,2.769.1904,4.347.1685c1.548-.0214,3.308-.1201,4.562-.3746l-.596-2.9401Zm-7.952.168l-2.999.0845.056,1.988l2.999-.0845l2.998-.0845-.056-1.988-2.998.0845Zm.056,1.988l.224,2.9916c2.127-.1596,4.05-.1804,5.905-.0049l.283-2.9867.282-2.9867c-2.288-.2165-4.566-.1814-6.919-.0049l.225,2.9916Zm6.412,0l-.299,2.9851c.04.004.078.0099.112.0172.034.0072.06.0148.076.0205s.018.0079.01.0033c-.009-.0049-.031-.0177-.059-.0414-.029-.0244-.061-.0568-.092-.0965-.015-.0195-.028-.039-.039-.058s-.02-.0359-.026-.0498c-.013-.029-.012-.0379-.008-.0174.004.0214.013.0778.013.177h3h3c0-1.9066-.722-3.4909-2.001-4.5597-1.158-.968-2.489-1.2755-3.389-1.3654l-.298,2.9851Zm2.688,2.94h-3c0,.1048-.01.1708-.016.2047-.006.0333-.011.0398-.006.0271.006-.013.017-.0356.037-.0624.019-.0265.04-.0492.06-.0671.039-.0349.059-.0385.037-.03-.01.0039-.025.0089-.045.0135s-.038.0075-.054.0091l.299,2.9851.298,2.9851c1.004-.1004,2.337-.4809,3.466-1.4914c1.221-1.0928,1.924-2.6745,1.924-4.5737h-3Zm-2.688,3.08l-.303-2.9847c-2.015.2041-3.934.2053-5.901.05l-.236,2.9907-.237,2.9907c2.289.1807,4.57.1819,6.979-.062l-.302-2.9847Zm-6.44.056l-2.998-.1249-.084,2.016l2.998.1249l2.997.1249.084-2.016-2.997-.1249Zm-.084,2.016l.464,2.9638c.445-.0698,1.729-.1319,3.314-.1179c1.556.0137,3.033.0976,3.833.2274l.481-2.9613.48-2.9613c-1.272-.2062-3.126-.2903-4.741-.3046-1.587-.014-3.313.0359-4.296.1901l.465,2.9638Z" fill="#6d3100"/><mask id="ePrx9iumCzF14" mask-type="luminance" x="-150%" y="-150%" height="400%" width="400%"><rect width="177" height="30" rx="0" ry="0" transform="translate(32 25)" fill="#fff"/><path d="M52.9188,49.364c-1.54,1.092-4.06,1.988-6.216,1.988-6.44,0-11.284-3.724-11.284-11.536s4.844-11.564,11.284-11.564c2.212,0,4.676.896,6.16,1.96c1.092.784,1.848,2.548.616,4.508-1.456,2.296-3.444,1.904-4.172,1.428-.868-.56-1.68-1.064-2.604-1.064-2.352,0-4.144,1.736-4.144,4.732s1.792,4.676,4.144,4.676c1.4,0,2.044-.532,3.052-1.232.812-.56,2.548-.504,3.836,1.232c1.652,2.212.504,4.032-.672,4.872Zm14.4461,1.988c-6.048,0-10.864-4.032-10.864-11.536c0-7.532,4.816-11.564,10.864-11.564s10.864,4.032,10.864,11.564c0,7.504-4.816,11.536-10.864,11.536Zm0-6.748c2.296,0,3.724-1.876,3.724-4.788c0-2.94-1.4-4.816-3.724-4.816s-3.724,1.848-3.724,4.816c0,2.94,1.4,4.788,3.724,4.788Zm13.1164,2.884c0-4.088,1.008-12.768,2.072-16.548.588-2.072,2.044-2.688,3.752-2.688c1.764,0,2.968,1.036,3.668,2.408.924,1.792,1.988,4.9,3.248,9.1h.112c1.26-4.2,2.464-7.392,3.276-9.1.672-1.4,1.876-2.408,3.6397-2.408c1.708,0,3.164.616,3.752,2.688c1.064,3.78,2.072,12.46,2.072,16.548c0,2.044-.672,3.612-2.688,3.836s-2.94-.728-3.4157-2.688c-.364-1.484-.784-5.096-1.036-8.82h-.14c-.924,3.808-1.932,7.252-2.688,9.044-.56,1.344-1.4,1.932-2.828,1.932s-2.268-.588-2.828-1.932c-.728-1.708-1.792-5.404-2.688-9.044h-.14c-.252,3.724-.672,7.336-1.036,8.82-.476,1.96-1.4,2.912-3.416,2.688s-2.688-1.792-2.688-3.836Zm28.5077-15.82c.28-2.128,1.54-3.08,3.332-3.248c1.932-.168,5.04-.224,6.972.028c4.732.616,7.784,3.304,7.784,7.84c0,4.564-3.248,7.392-6.832,7.924-1.484.224-3.192.28-4.256.14c0,1.428-.14,2.716-.308,3.752-.336,2.016-1.344,3.248-3.388,3.248s-3.024-1.232-3.276-3.248c-.56-4.48-.56-12.32-.028-16.436Zm11.2,4.592c0-1.792-2.212-2.184-4.34-1.736v3.612c2.212.448,4.34-.112,4.34-1.876Zm9.281-5.04c.28-2.184,1.792-2.968,3.332-2.968s2.996.784,3.332,2.968c.504,3.248.616,10.276.28,12.964c1.82-.224,4.732-.168,7.028.196c2.016.308,3.192,1.288,3.192,3.332s-1.176,3.136-3.22,3.388c-3.108.392-7.56.364-10.304,0-2.044-.28-3.276-1.344-3.612-3.36-.644-3.892-.56-12.404-.028-16.52Zm34.335,13.748c1.12.168,2.492.728,2.492,2.94c0,2.24-1.4,2.856-2.52,3.08-2.52.476-8.848.448-11.312.224-2.044-.196-3.108-1.372-3.444-3.388-.616-3.64-.504-12.292-.028-16.1.308-2.436,1.736-3.164,3.472-3.36c1.456-.168,9.184-.168,11.256.252c1.12.224,2.576.728,2.576,2.94c0,2.24-1.456,2.828-2.576,3.052-1.932.392-6.104.392-7.952.168l.056,1.988c2.24-.168,4.34-.196,6.412,0c1.12.112,2.688.728,2.688,2.94c0,2.24-1.568,2.968-2.688,3.08-2.212.224-4.312.224-6.44.056l-.084,2.016c1.428-.224,6.02-.224,8.092.112Zm19.464-16.464c2.016.168,3.36,1.148,3.36,3.192s-1.344,3.024-3.36,3.192c-.952.084-1.876.14-2.772.168.308,3.948.224,9.296-.252,13.048-.252,2.016-1.26,3.248-3.304,3.248s-3.052-1.232-3.304-3.248c-.476-3.78-.56-9.016-.252-13.048-.924-.028-1.848-.112-2.772-.168-2.184-.168-3.332-1.372-3.332-3.192s1.148-3.024,3.332-3.192c4.116-.308,8.176-.364,12.656,0Zm20.103,16.464c1.12.168,2.492.728,2.492,2.94c0,2.24-1.4,2.856-2.52,3.08-2.52.476-8.848.448-11.312.224-2.044-.196-3.108-1.372-3.444-3.388-.616-3.64-.504-12.292-.028-16.1.308-2.436,1.736-3.164,3.472-3.36c1.456-.168,9.184-.168,11.256.252c1.12.224,2.576.728,2.576,2.94c0,2.24-1.456,2.828-2.576,3.052-1.932.392-6.104.392-7.952.168l.056,1.988c2.24-.168,4.34-.196,6.412,0c1.12.112,2.688.728,2.688,2.94c0,2.24-1.568,2.968-2.688,3.08-2.212.224-4.312.224-6.44.056l-.084,2.016c1.428-.224,6.02-.224,8.092.112Z"/></mask></g></g></g><g id="ePrx9iumCzF17" transform="matrix(0 0 0 0 164.726502 262.61261)"><g><path d="M163.001,238.943c.773-1.318,2.678-1.318,3.451,0l7.242,12.352c.282.481.751.822,1.296.942l13.985,3.07c1.492.328,2.081,2.14,1.066,3.282l-9.509,10.704c-.37.417-.55.969-.495,1.524l1.401,14.25c.15,1.52-1.391,2.64-2.791,2.028l-13.119-5.737c-.511-.223-1.092-.223-1.603,0l-13.119,5.737c-1.399.612-2.941-.508-2.791-2.028l1.401-14.25c.055-.555-.124-1.107-.495-1.524l-9.509-10.704c-1.015-1.142-.426-2.954,1.066-3.282l13.985-3.07c.545-.12,1.015-.461,1.297-.942l7.241-12.352Z" fill="#543115" stroke-linejoin="round"/><path d="M159.777,236.561c2.366-3.476,7.533-3.476,9.899,0l.226.359l6.8,11.598l13.131,2.882c4.476.983,6.243,6.419,3.199,9.845l-8.929,10.05l1.316,13.38c.449,4.561-4.176,7.921-8.375,6.085l-12.317-5.387-12.318,5.387c-4.199,1.836-8.824-1.524-8.375-6.085l1.316-13.38-8.929-10.05c-3.044-3.426-1.277-8.862,3.199-9.845l13.13-2.882l6.801-11.598.226-.359Z" fill="none" stroke="#543115" stroke-width="8" stroke-linejoin="round"/></g><g><path d="M163.001,238.943c.773-1.318,2.678-1.318,3.451,0l7.242,12.352c.282.481.751.822,1.296.942l13.985,3.07c1.492.328,2.081,2.14,1.066,3.282l-9.509,10.704c-.37.417-.55.969-.495,1.524l1.401,14.25c.15,1.52-1.391,2.64-2.791,2.028l-13.119-5.737c-.511-.223-1.092-.223-1.603,0l-13.119,5.737c-1.399.612-2.941-.508-2.791-2.028l1.401-14.25c.055-.555-.124-1.107-.495-1.524l-9.509-10.704c-1.015-1.142-.426-2.954,1.066-3.282l13.985-3.07c.545-.12,1.015-.461,1.297-.942l7.241-12.352Z" fill="url(#ePrx9iumCzF22-fill)" stroke-linejoin="round"/><path d="M161.275,237.932c1.546-2.636,5.357-2.636,6.903,0l7.241,12.351l13.985,3.071c2.984.655,4.162,4.279,2.133,6.563l-9.51,10.704l1.402,14.25c.299,3.041-2.784,5.28-5.583,4.056l-13.119-5.737-13.12,5.738c-2.799,1.223-5.881-1.016-5.583-4.057l1.402-14.25-9.51-10.704c-2.029-2.284-.851-5.908,2.133-6.563l13.985-3.071l7.241-12.351Z" fill="none" stroke="url(#ePrx9iumCzF23-stroke)" stroke-width="4" stroke-linejoin="round"/></g><path d="M155.608,253.872l-7.005,1.827c-1.135.296-.921,1.968.253,1.968h5.089c3.496,0,6.544-2.38,7.392-5.772.471-1.885-2.086-2.95-3.092-1.287l-1.431,2.364c-.269.445-.702.768-1.206.9Z" fill="#fff" fill-opacity="0.6"/><path d="M164.561,278.918l-7.545,3.38c-1.025.459-1.912-.86-1.1-1.636l2.017-1.928c3.92-3.747,10.112-3.687,13.958.135l1.782,1.77c.794.789-.112,2.088-1.127,1.616l-7.154-3.331c-.263-.122-.566-.125-.831-.006Z" fill="#fff" fill-opacity="0.3"/></g><g id="ePrx9iumCzF26" transform="matrix(0 0 0 0 232.726501 262.61261)"><g><path d="M231.001,238.943c.773-1.318,2.678-1.318,3.451,0l7.242,12.352c.282.481.751.822,1.296.942l13.985,3.07c1.492.328,2.081,2.14,1.066,3.282l-9.509,10.704c-.37.417-.55.969-.495,1.524l1.401,14.25c.15,1.52-1.391,2.64-2.791,2.028l-13.119-5.737c-.511-.223-1.092-.223-1.603,0l-13.119,5.737c-1.399.612-2.941-.508-2.791-2.028l1.401-14.25c.055-.555-.124-1.107-.495-1.524l-9.509-10.704c-1.015-1.142-.426-2.954,1.066-3.282l13.985-3.07c.545-.12,1.015-.461,1.297-.942l7.241-12.352Z" fill="#543115" stroke-linecap="round" stroke-linejoin="round"/><path d="M227.777,236.561c2.366-3.476,7.533-3.476,9.899,0l.226.359l6.8,11.598l13.131,2.882c4.476.983,6.243,6.419,3.199,9.845l-8.929,10.05l1.316,13.38c.449,4.561-4.176,7.921-8.375,6.085l-12.317-5.387-12.318,5.387c-4.199,1.836-8.824-1.524-8.375-6.085l1.316-13.38-8.929-10.05c-3.044-3.426-1.277-8.862,3.199-9.845l13.13-2.882l6.801-11.598.226-.359Z" fill="none" stroke="#543115" stroke-width="8" stroke-linecap="round" stroke-linejoin="round"/></g><g><path d="M231.001,238.943c.773-1.318,2.678-1.318,3.451,0l7.242,12.352c.282.481.751.822,1.296.942l13.985,3.07c1.492.328,2.081,2.14,1.066,3.282l-9.509,10.704c-.37.417-.55.969-.495,1.524l1.401,14.25c.15,1.52-1.391,2.64-2.791,2.028l-13.119-5.737c-.511-.223-1.092-.223-1.603,0l-13.119,5.737c-1.399.612-2.941-.508-2.791-2.028l1.401-14.25c.055-.555-.124-1.107-.495-1.524l-9.509-10.704c-1.015-1.142-.426-2.954,1.066-3.282l13.985-3.07c.545-.12,1.015-.461,1.297-.942l7.241-12.352Z" fill="url(#ePrx9iumCzF31-fill)" stroke-linecap="round" stroke-linejoin="round"/><path d="M229.275,237.932c1.546-2.636,5.357-2.636,6.903,0l7.241,12.351l13.985,3.071c2.984.655,4.162,4.279,2.133,6.563l-9.51,10.704l1.402,14.25c.299,3.041-2.784,5.28-5.583,4.056l-13.119-5.737-13.12,5.738c-2.799,1.223-5.881-1.016-5.583-4.057l1.402-14.25-9.51-10.704c-2.029-2.284-.851-5.908,2.133-6.563l13.985-3.071l7.241-12.351Z" fill="none" stroke="url(#ePrx9iumCzF32-stroke)" stroke-width="4" stroke-linecap="round" stroke-linejoin="round"/></g><path d="M232.561,278.918l-7.545,3.38c-1.025.459-1.912-.86-1.1-1.636l2.017-1.928c3.92-3.747,10.112-3.687,13.958.135l1.782,1.77c.794.789-.112,2.088-1.127,1.616l-7.154-3.331c-.263-.122-.566-.125-.831-.006Z" fill="#fff" fill-opacity="0.3"/><path d="M223.608,253.872l-7.005,1.827c-1.135.296-.921,1.968.253,1.968h5.089c3.496,0,6.544-2.38,7.392-5.772.471-1.885-2.086-2.95-3.092-1.287l-1.431,2.364c-.269.445-.702.768-1.206.9Z" fill="#fff" fill-opacity="0.6"/></g><g id="ePrx9iumCzF35" transform="matrix(0 0 0 0 300.726501 262.61261)"><g><path d="M299.001,238.943c.773-1.318,2.678-1.318,3.451,0l7.242,12.352c.282.481.751.822,1.296.942l13.985,3.07c1.492.328,2.081,2.14,1.066,3.282l-9.509,10.704c-.37.417-.55.969-.495,1.524l1.401,14.25c.15,1.52-1.391,2.64-2.791,2.028l-13.119-5.737c-.511-.223-1.092-.223-1.603,0l-13.119,5.737c-1.399.612-2.941-.508-2.791-2.028l1.401-14.25c.055-.555-.124-1.107-.495-1.524l-9.509-10.704c-1.015-1.142-.426-2.954,1.066-3.282l13.985-3.07c.545-.12,1.015-.461,1.297-.942l7.241-12.352Z" fill="#543115" stroke-linecap="round" stroke-linejoin="round"/><path d="M295.777,236.561c2.366-3.476,7.533-3.476,9.899,0l.226.359l6.8,11.598l13.131,2.882c4.476.983,6.243,6.419,3.199,9.845l-8.929,10.05l1.316,13.38c.449,4.561-4.176,7.921-8.375,6.085l-12.317-5.387-12.318,5.387c-4.199,1.836-8.824-1.524-8.375-6.085l1.316-13.38-8.929-10.05c-3.044-3.426-1.277-8.862,3.199-9.845l13.13-2.882l6.801-11.598.226-.359Z" fill="none" stroke="#543115" stroke-width="8" stroke-linecap="round" stroke-linejoin="round"/></g><g><path d="M299.001,238.943c.773-1.318,2.678-1.318,3.451,0l7.242,12.352c.282.481.751.822,1.296.942l13.985,3.07c1.492.328,2.081,2.14,1.066,3.282l-9.509,10.704c-.37.417-.55.969-.495,1.524l1.401,14.25c.15,1.52-1.391,2.64-2.791,2.028l-13.119-5.737c-.511-.223-1.092-.223-1.603,0l-13.119,5.737c-1.399.612-2.941-.508-2.791-2.028l1.401-14.25c.055-.555-.124-1.107-.495-1.524l-9.509-10.704c-1.015-1.142-.426-2.954,1.066-3.282l13.985-3.07c.545-.12,1.015-.461,1.297-.942l7.241-12.352Z" fill="url(#ePrx9iumCzF40-fill)" stroke-linecap="round" stroke-linejoin="round"/><path d="M297.275,237.932c1.546-2.636,5.357-2.636,6.903,0l7.241,12.351l13.985,3.071c2.984.655,4.162,4.279,2.133,6.563l-9.51,10.704l1.402,14.25c.299,3.041-2.784,5.28-5.583,4.056l-13.119-5.737-13.12,5.738c-2.799,1.223-5.881-1.016-5.583-4.057l1.402-14.25-9.51-10.704c-2.029-2.284-.851-5.908,2.133-6.563l13.985-3.071l7.241-12.351Z" fill="none" stroke="url(#ePrx9iumCzF41-stroke)" stroke-width="4" stroke-linecap="round" stroke-linejoin="round"/></g><path d="M291.608,253.872l-7.005,1.827c-1.135.296-.921,1.968.253,1.968h5.089c3.496,0,6.544-2.38,7.392-5.772.471-1.885-2.086-2.95-3.092-1.287l-1.431,2.364c-.269.445-.702.768-1.206.9Z" fill="#fff" fill-opacity="0.6"/><path d="M300.561,278.918l-7.545,3.38c-1.025.459-1.912-.86-1.1-1.636l2.017-1.928c3.92-3.747,10.112-3.687,13.958.135l1.782,1.77c.794.789-.112,2.088-1.127,1.616l-7.154-3.331c-.263-.122-.566-.125-.831-.006Z" fill="#fff" fill-opacity="0.3"/></g></g>
<script><![CDATA[
!function(t,e){"object"==typeof exports&&"undefined"!=typeof module?module.exports=e():"function"==typeof __SVGATOR_DEFINE__&&__SVGATOR_DEFINE__.amd?__SVGATOR_DEFINE__(e):((t="undefined"!=typeof globalThis?globalThis:t||self).__SVGATOR_PLAYER__=t.__SVGATOR_PLAYER__||{},t.__SVGATOR_PLAYER__["91c80d77"]=e())}(this,(function(){"use strict";const t=n(Math.pow(10,-6)),e=n(Math.pow(10,-2));function n(t,e=6){return function(t,e,n){if(Number.isInteger(t))return t;const r=Math.pow(10,e);return Math[n]((+t+Number.EPSILON)*r)/r}(t,e,"round")}function r(e,n,r=t){return Math.abs(e-n)<r}n(Math.pow(10,-4));const i=Math.PI/180;function s(t){return t*i}function o(t){return t/i}function u(t){return"number"!=typeof t&&(t=Number(t)),isNaN(t)||!isFinite(t)?0:t}let l={iD:!1};function a(t){return`${t}`.replace(/['"]/g,"")}function c(t,e="px"){return t.endsWith(e)?t:`${t}${e}`}function f(t=""){return l.iD?t:void 0}function h(t){const e=["^","\\s*","(matrix\\()","(?<a>-?[0-9]*\\.?[0-9]+)","\\s*",",?","\\s*","(?<b>-?[0-9]*\\.?[0-9]+)","\\s*",",?","\\s*","(?<c>-?[0-9]*\\.?[0-9]+)","\\s*",",?","\\s*","(?<d>-?[0-9]*\\.?[0-9]+)","\\s*",",?","\\s*","(?<e>-?[0-9]*\\.?[0-9]+)","\\s*",",?","\\s*","(?<f>-?[0-9]*\\.?[0-9]+)","\\)"].join(""),n=t.match(new RegExp(e,"i"));if(n)return[u(n.groups.a),u(n.groups.b),u(n.groups.c),u(n.groups.d),u(n.groups.e),u(n.groups.f)]}function d(t,e="inline"){return t&&t!==e?(t=a(t))===e?f(e):t:f(e)}function g(t,e="1px"){if(!t||t===e)return f(e);if(t.endsWith("px")||t.endsWith("%"))return t;const n=c(t=`${u(t)}`);return n===e?f(e):n}function p(t,e="none"){return t&&t!==e?(t=a(t))===e?f(e):t.startsWith("url(#")?t:function(t){const e=["^","\\s*","url\\(","#","(?<maskId>[a-zA-Z0-9\\-_]+)","\\)"].join(""),n=t.match(new RegExp(e,"i"));if(n)return`url(#${n.groups.maskId})`}(t):f(e)}function y(t,e="rgb(0, 0, 0)"){if(!t||t===e)return f(e);if((t=a(t))===e)return f(e);if(t.startsWith("rgb"))return t;const n=function(t){const e=["^","\\s*","#","(?<red>[0-9A-Z]{1,2})","(?<green>[0-9A-Z]{1,2})","(?<blue>[0-9A-Z]{1,2})"].join(""),n=t.match(new RegExp(e,"i"));if(!n)return t;const r=t=>parseInt(t.length>1?t:`${t}${t}`,16);return`rgb(${r(n.groups.red)}, ${r(n.groups.green)}, ${r(n.groups.blue)})`}(t);return n===e?f(e):n}function m(t,e="1"){return t&&t!==e?(t=`${n(u(t),3)}`)===e?f(e):t:f(e)}let v={};const b={fill:"none",stroke:"none",opacity:"0.01",transform:"matrix(0.001 0 0 0.001 -10000 -10000)"};function w({element:t,tagType:e="path",property:n="d",attributeValue:r}){return v[r]||(v[r]=function({element:t,tagType:e="path",property:n="d",attributeValue:r}){const i=t.ownerSVGElement,s=document.createElementNS(i.namespaceURI,e);s.setAttributeNS(null,n,r);for(const t in b)s.setAttributeNS(null,t,b[t]);i.appendChild(s);const o=getComputedStyle(s)[n];return s.remove(),o}({element:t,tagType:e,property:n,attributeValue:r})),v[r]}const x=()=>{v={}};"object"==typeof window&&(window.removeEventListener("resize",x),window.addEventListener("resize",x));const A={include:(t,e)=>["path"].includes(e),formatter:t=>function(t,e=""){return t&&t!==e?(t=a(t))===e?f(e):t.startsWith("path(")?t:`path('${t}')`:f(e)}(t)},_={include:(t,e)=>["rect","mask"].includes(e),formatter:(t,e,n)=>g(t,function(t,e){var n;return(null===(n={mask:{x:"-150%",y:"-150%",width:"400%",height:"400%"}}[e])||void 0===n?void 0:n[t])||(["x","y"].includes(t)?"0px":"100%")}(e,n))},k=Object.freeze({d:A,display:t=>d(t),height:_,fill:t=>y(t),"fill-opacity":t=>m(t),filter:t=>d(t,"none"),mask:t=>p(t),opacity:t=>m(t),stroke:t=>y(t,"none"),"stroke-opacity":t=>m(t),"stroke-width":t=>g(t),transform:t=>function(t,e="none"){if(!t||t===e)return f(e);const n=h(t);return n?`matrix(${n.join(", ")})`:t}(t),"transform-origin":t=>function(t,e="0px 0px"){if(!t||t===e)return f(e);const n=["^","\\s*","(?<x>[0-9]+)","(px)?","\\s*",",","\\s*","(?<y>[0-9]+)","(px)?"].join(""),r=t.match(new RegExp(n,"i"));if(!r)return t;let i=`${u(r.groups.x)}`;i=c(i);let s=`${u(r.groups.y)}`;s=c(s);const o=`${i} ${s}`;return o===e?f(e):o}(t),visibility:t=>d(t,"visible"),width:_,x:_,y:_}),S=Object.keys(k),E=e;function M(t,e,n,i,s=window){var o,u;const l=t.getAttribute(e),a="transform"===e?"none":"",c=s.safari&&!s.chrome&&(null===(o=i.getPropertyValue)||void 0===o?void 0:o.call(i,e))===a||"mask"===n?l:null===(u=i.getPropertyValue)||void 0===u?void 0:u.call(i,e);if(l&&c){if(l===c)return l;switch(e){case"transform":return function(t,e){const n=h(t),i=h(e);if((null==n?void 0:n.length)===(null==i?void 0:i.length)){for(let t=0,e=n.length;t<e;t++)if(n[t]!==i[t]&&(s=i[t],!r(((o=n[t])-s)/(o||1)*100,0,E)))return;var s,o;return t}}(l,c);case"d":return function(t,e,n){return w({element:t,attributeValue:e})===n?e:void 0}(t,l,c);default:return c}}}function O(t,e,n,r){var i,s,o,u;const l="transform"===e||["mask","path"].includes(n)&&["x","y","width","height","d"].includes(e);return r&&l?M(t,e,n,r):(null===(i=r.getPropertyValue)||void 0===i?void 0:i.call(r,e))??(null===(s=t.attrs)||void 0===s||null===(o=s.style)||void 0===o?void 0:o[e])??(null===(u=t.attrs)||void 0===u?void 0:u[e])}function I(t,e,n=!1){l.iD=n;const r="undefined"!=typeof window&&getComputedStyle(t),i={};for(let l=0,a=S.length;l<a;l++){var s,o,u;const a=S[l],c=t.type||t.nodeName;if(!1===(null===(s=(o=k[a]).include)||void 0===s?void 0:s.call(o,a,c)))continue;const f=k[a].formatter||k[a];if(null!=e&&null!==(u=e[t.id])&&void 0!==u&&u[a])continue;const h=O(t,a,c,r);if(null==h&&!n)continue;const d=f.call(this,h,a,c);d&&(i[a]=d)}return i}function j(t){var e,n;if(null==t||null===(e=t.wD)||void 0===e||!e.length)return;this.h=t.wD.shift();const r=null===(n=t.rootId)||void 0===n?void 0:n.slice(0,-1);this.wIs=t.wD.map((t=>`${r}${t}`))}function B(t){const e=new j(t),n=t.svg,r=e.wIs,i=t.originalAnimations[0].elements,s=e.h;function o(t,e,s){var u;if(e[t])return;const l=n.querySelector("#"+t),a=null==l||null===(u=l.parentElement)||void 0===u?void 0:u.id;if(l&&a){if(r.includes(a))return e[a]||o(a,e,s),e[a].children??=[],e[t]=I(l,i),void e[a].children.push(e[t]);e[t]=I(l,i),s.push(e[t])}}async function u(){const t=function(){let t=[],e={};for(let n=0,i=r.length;n<i;n++)o(r[n],e,t);return t}();return await async function(t){var e,n;const r=JSON.stringify(t),i=(new TextEncoder).encode(r),o=await(null===(e=window.crypto)||void 0===e||null===(n=e.subtle)||void 0===n?void 0:n.digest("SHA-256",i));return o&&Array.from(new Uint8Array(o)).map((t=>t.toString(16).padStart(2,"0"))).join("")||s}(t)}this.vH=async function(){await u()!==s&&requestAnimationFrame((()=>t.stop()))}}function N(t){let e=0,n=0;const r=new B(t);this.cF=function(i,s){return t.wD?(e++,function(t){return!(t-n<300)&&(t-n>=500||e>=3)}(i)?(e=0,n=i,window.requestAnimationFrame((()=>r.vH())),s()):s()):s()}}function T(t){return t}function P(t,e,n){const r=1-n;return 3*n*r*(t*r+e*n)+n*n*n}function F(t=0,e=0,n=1,i=1){return t<0||t>1||n<0||n>1?null:r(t,e)&&r(n,i)?T:s=>{if(s<=0)return t>0?s*e/t:0===e&&n>0?s*i/n:0;if(s>=1)return n<1?1+(s-1)*(i-1)/(n-1):1===n&&t<1?1+(s-1)*(e-1)/(t-1):1;let o,u=0,l=1;for(;u<l;){o=(u+l)/2;const e=P(t,n,o);if(r(s,e))break;e<s?u=o:l=o}return P(e,i,o)}}function R(){return 1}function V(t){return 1===t?1:0}function C(t=1,e=0){if(1===t){if(0===e)return V;if(1===e)return R}const n=1/t;return t=>t>=1?1:(t+=e*n)-t%n}Number.isInteger||(Number.isInteger=function(t){return"number"==typeof t&&isFinite(t)&&Math.floor(t)===t}),Number.EPSILON||(Number.EPSILON=2220446049250313e-31);const D=Math.sin,L=Math.cos,$=Math.acos,q=Math.asin,z=Math.tan,G=Math.atan2,W=Math.sqrt;function Y(t,e){return{a:t[0]*e[0]+t[2]*e[1],b:t[1]*e[0]+t[3]*e[1],c:t[0]*e[2]+t[2]*e[3],d:t[1]*e[2]+t[3]*e[3],tx:t[0]*e[4]+t[2]*e[5]+t[4],ty:t[1]*e[4]+t[3]*e[5]+t[5]}}function U(t,e,n){return t>=.5?n:e}function H(t,e,n){return 0===t||e===n?e:t*(n-e)+e}function Z(t,e,n){const r=H(t,e,n);return r<=0?0:r}function J(t,e,n){const r=H(t,e,n);return r<=0?0:r>=1?1:r}function Q(t,e,n){return 0===t?e:1===t?n:{x:H(t,e.x,n.x),y:H(t,e.y,n.y)}}function X(t,e,n){return 0===t?e:1===t?n:{x:Z(t,e.x,n.x),y:Z(t,e.y,n.y)}}function K(t,e,n){const r=function(t,e,n){return Math.round(H(t,e,n))}(t,e,n);return r<=0?0:r>=255?255:r}function tt(t,e,n){return 0===t?e:1===t?n:{r:K(t,e.r,n.r),g:K(t,e.g,n.g),b:K(t,e.b,n.b),a:H(t,null==e.a?1:e.a,null==n.a?1:n.a)}}function et(t,e,n){let r=e.length;if(r!==n.length)return U(t,e,n);let i=new Array(r);for(let s=0;s<r;s++)i[s]=H(t,e[s],n[s]);return i}function nt(t,e){const n=[];for(let r=0;r<t;r++)n.push(e);return n}function rt(t,e){if(--e<=0)return t;const n=(t=Object.assign([],t)).length;do{for(let e=0;e<n;e++)t.push(t[e])}while(--e>0);return t}class it{constructor(t){this.list=t,this.length=t.length}setAttribute(t,e){const n=this.list;for(let r=0;r<this.length;r++)n[r].setAttribute(t,e)}removeAttribute(t){const e=this.list;for(let n=0;n<this.length;n++)e[n].removeAttribute(t)}style(t,e){const n=this.list;for(let r=0;r<this.length;r++)n[r].style[t]=e}}const st=/-./g,ot=(t,e)=>e.toUpperCase();let ut;function lt(t){return"function"==typeof t?t:U}function at(t){return t?"function"==typeof t?t:Array.isArray(t)?function(t,e=T){if(!Array.isArray(t))return e;switch(t.length){case 1:return C(t[0])||e;case 2:return C(t[0],t[1])||e;case 4:return F(t[0],t[1],t[2],t[3])||e}return e}(t,null):function(t,e,n=T){switch(t){case"linear":return T;case"steps":return C(e.steps||1,e.jump||0)||n;case"bezier":case"cubic-bezier":return F(e.x1||0,e.y1||0,e.x2||0,e.y2||0)||n}return n}(t.type,t.value,null):null}function ct(t,e,n,r=!1){const i=e.length-1;if(t<=e[0].t)return r?[0,0,e[0].v]:e[0].v;if(t>=e[i].t)return r?[i,1,e[i].v]:e[i].v;let s,o=e[0],u=null;for(s=1;s<=i;s++){if(!(t>e[s].t)){u=e[s];break}o=e[s]}return null==u?r?[i,1,e[i].v]:e[i].v:o.t===u.t?r?[s,1,u.v]:u.v:(t=(t-o.t)/(u.t-o.t),o.e&&(t=o.e(t)),r?[s,t,n(t,o.v,u.v)]:n(t,o.v,u.v))}function ft(t,e,n=null){return t&&t.length?"function"!=typeof e?null:("function"!=typeof n&&(n=null),r=>{let i=ct(r,t,e);return null!=i&&n&&(i=n(i)),i}):null}function ht(t,e){return t.t-e.t}function dt(t,e,n,r,i){const s="@"===n[0],o="#"===n[0];let u=ut[n],l=U;var a;switch(s?(a=n.substr(1),n=a.replace(st,ot)):o&&(n=n.substr(1)),typeof u){case"function":if(l=u(r,i,ct,at,n,s,e,t),o)return l;break;case"string":l=ft(r,lt(u));break;case"object":if(l=ft(r,lt(u.i),u.f),l&&"function"==typeof u.u)return u.u(e,l,n,s,t)}return l?function(t,e,n,r=!1){if(r)return t instanceof it?r=>t.style(e,n(r)):r=>t.style[e]=n(r);if(Array.isArray(e)){const r=e.length;return i=>{const s=n(i);if(null==s)for(let n=0;n<r;n++)t[n].removeAttribute(e);else for(let n=0;n<r;n++)t[n].setAttribute(e,s)}}return r=>{const i=n(r);null==i?t.removeAttribute(e):t.setAttribute(e,i)}}(e,n,l,s):null}function gt(t,e,n,r){if(!r||"object"!=typeof r)return null;let i=null,s=null;return Array.isArray(r)?s=function(t){if(!t||!t.length)return null;for(let e=0;e<t.length;e++)t[e].e&&(t[e].e=at(t[e].e));return t.sort(ht)}(r):(s=r.keys,i=r.data||null),s?dt(t,e,n,s,i):null}function pt(t,e,n){if(!n)return null;const r=[];for(const i in n)if(n.hasOwnProperty(i)){const s=gt(t,e,i,n[i]);s&&r.push(s)}return r.length?r:null}function yt(t,e){if(!e.settings.duration||e.settings.duration<0)return null;const n=function(t,e){if(!e)return null;let n=[];if(Array.isArray(e)){const r=e.length;for(let i=0;i<r;i++){const r=e[i];if(2!==r.length)continue;let s=null;if("string"==typeof r[0])s=t.getElementById(r[0]);else if(Array.isArray(r[0])){s=[];for(let e=0;e<r[0].length;e++)if("string"==typeof r[0][e]){const n=t.getElementById(r[0][e]);n&&s.push(n)}s=s.length?1===s.length?s[0]:new it(s):null}if(!s)continue;const o=pt(t,s,r[1]);o&&(n=n.concat(o))}}else for(const r in e){if(!e.hasOwnProperty(r))continue;const i=t.getElementById(r);if(!i)continue;const s=pt(t,i,e[r]);s&&(n=n.concat(s))}return n.length?n:null}(t,e.elements);return n?function(t,e){const n=e.duration,r=t.length;let i=null;return(s,o)=>{const u=e.iterations||1/0,l=(e.alternate&&u%2==0)^e.direction>0?n:0;let a=s%n,c=1+(s-a)/n;o*=e.direction,e.alternate&&c%2==0&&(o=-o);let f=!1;if(c>u)a=l,f=!0,-1===e.fill&&(a=e.direction>0?0:n);else if(o<0&&(a=n-a),a===i)return!1;i=a;for(let e=0;e<r;e++)t[e](a);return f}}(n,e.settings):null}function mt(t,e=document,n=0){const r=function(t,e){const n=e.querySelectorAll("svg");for(let e=0;e<n.length;e++)if(n[e].id===t.root&&!n[e].svgatorAnimation)return n[e].svgatorAnimation=!0,n[e];return null}(t,e);if(r)return r;if(n>=20)return null;const i=function(t){const e=t=>t.shadowRoot;return document?Array.from(t.querySelectorAll(":not("+["a","area","audio","br","canvas","circle","datalist","embed","g","head","hr","iframe","img","input","link","object","path","polygon","rect","script","source","style","svg","title","track","video"].join()+")")).filter(e).map(e):[]}(e);for(let e=0;e<i.length;e++){const r=mt(t,i[e],n+1);if(r)return r}return null}function vt(t,e=null,n=Number,r="undefined"!=typeof BigInt&&BigInt){const i="0x"+(t.replace(/[^0-9a-fA-F]+/g,"")||27);return e&&r&&n.isSafeInteger&&!n.isSafeInteger(+i)?n(r(i))%e+e:+i}function bt(t,e=27){return!t||t%e?t%e:[0,1].includes(e)?e:bt(t/e,e)}function wt(t,e,n){if(!t||!t.length)return;const r=vt(n),i=bt(r)+5;let s=function(t,e,n){let r="";for(;t&&n&&e<=t.length;)r+=t.substring(0,e),t=t.substring(e+1),e=n;return r+t}(t,bt(r,5),i);return s=s.replace(/\x7c$/g,"==").replace(/\x2f$/g,"="),s=atob(s),s=s.replace(/[\x41-\x5A]/g,""),s=function(t,e,n){const r=+("0x"+t.substring(0,4));t=t.substring(4);const i=vt(e,r)%r+n%27,s=[];for(let e=0;e<t.length;e+=2){if("|"===t[e]){const n=+("0x"+t.substring(e+1,e+1+4))-i;e+=3,s.push(n);continue}const n=+("0x"+t[e]+t[e+1])-i;s.push(n)}return String.fromCharCode(...s)}(s,e,r),s=JSON.parse(s),s}const xt=[{key:"alternate",def:!1},{key:"fill",def:1},{key:"iterations",def:0},{key:"direction",def:1},{key:"speed",def:1},{key:"fps",def:100}];function At(t){return n(t)+""}function _t(t,e=" "){return t&&t.length?t.map(At).join(e):""}function kt(t){return At(t.x)+","+At(t.y)}function St(t){return t?null==t.a||t.a>=1?function(t){if(!t)return"transparent";const e=t=>parseInt(t).toString(16).padStart(2,"0");return function(t){const e=[];let n="#"===t[0]?e.push("#"):0;for(;n<t.length;n+=2){if(t[n]!==t[n+1])return t;e.push(t[n])}return e.join("")}("#"+e(t.r)+e(t.g)+e(t.b)+(null==t.a||t.a>=1?"":e(255*t.a)))}(t):"rgba("+t.r+","+t.g+","+t.b+","+t.a+")":"transparent"}function Et(t){return t?"url(#"+t+")":"none"}!function(){for(var t=0,e=["ms","moz","webkit","o"],n=0;n<e.length&&!window.requestAnimationFrame;++n)window.requestAnimationFrame=window[e[n]+"RequestAnimationFrame"],window.cancelAnimationFrame=window[e[n]+"CancelAnimationFrame"]||window[e[n]+"CancelRequestAnimationFrame"];window.requestAnimationFrame||(window.requestAnimationFrame=function(e){var n=Date.now(),r=Math.max(0,16-(n-t)),i=window.setTimeout((function(){e(n+r)}),r);return t=n+r,i},window.cancelAnimationFrame=window.clearTimeout)}();var Mt={f:null,i:X,u:(t,e)=>n=>{const r=e(n);t.setAttribute("rx",At(r.x)),t.setAttribute("ry",At(r.y))}},Ot={f:null,i:function(t,e,n){return 0===t?e:1===t?n:{width:Z(t,e.width,n.width),height:Z(t,e.height,n.height)}},u:(t,e)=>n=>{const r=e(n);t.setAttribute("width",At(r.width)),t.setAttribute("height",At(r.height))}};Object.freeze({M:2,L:2,Z:0,H:1,V:1,C:6,Q:4,T:2,S:4,A:7});let It={},jt=null;function Bt(t){let e=function(){if(jt)return jt;if("object"!=typeof document||!document.createElementNS)return{};let t=document.createElementNS("http://www.w3.org/2000/svg","svg");return t&&t.style?(t.style.position="absolute",t.style.opacity="0.01",t.style.zIndex="-9999",t.style.left="-9999px",t.style.width="1px",t.style.height="1px",jt={svg:t},jt):{}}().svg;if(!e)return function(t){return null};let n=document.createElementNS(e.namespaceURI,"path");n.setAttributeNS(null,"d",t),n.setAttributeNS(null,"fill","none"),n.setAttributeNS(null,"stroke","none"),e.appendChild(n);let r=n.getTotalLength();return function(t){let e=n.getPointAtLength(r*t);return{x:e.x,y:e.y}}}function Nt(t,e,n,r,i=1){let s=function(t){return It[t]?It[t]:It[t]=Bt(t)}(function(t,e,n,r){if(!t||!r)return!1;let i=["M",t.x,t.y];if(e&&n&&(i.push("C"),i.push(e.x),i.push(e.y),i.push(n.x),i.push(n.y)),e?!n:n){let t=e||n;i.push("Q"),i.push(t.x),i.push(t.y)}return e||n||i.push("L"),i.push(r.x),i.push(r.y),i.join(" ")}(t,e,n,r));try{return s(i)}catch(t){return null}}function Tt(t,e,n){return t+(e-t)*n}function Pt(t,e,n,r=!1){const i={x:Tt(t.x,e.x,n),y:Tt(t.y,e.y,n)};return r&&(i.a=function(t,e){return Math.atan2(e.y-t.y,e.x-t.x)}(t,e)),i}function Ft(t,e,n,r){const i=1-r;return i*i*t+2*i*r*e+r*r*n}function Rt(t,e,n,r){return 2*(1-r)*(e-t)+2*r*(n-e)}function Vt(t,e,n,r,i=!1){let s=Nt(t,e,null,n,r);return s||(s={x:Ft(t.x,e.x,n.x,r),y:Ft(t.y,e.y,n.y,r)}),i&&(s.a=function(t,e,n,r){return Math.atan2(Rt(t.y,e.y,n.y,r),Rt(t.x,e.x,n.x,r))}(t,e,n,r)),s}function Ct(t,e,n,r,i){const s=i*i;return i*s*(r-t+3*(e-n))+3*s*(t+n-2*e)+3*i*(e-t)+t}function Dt(t,e,n,r,i){const s=1-i;return 3*(s*s*(e-t)+2*s*i*(n-e)+i*i*(r-n))}function Lt(t,e,n,r,i,s=!1){let o=Nt(t,e,n,r,i);return o||(o={x:Ct(t.x,e.x,n.x,r.x,i),y:Ct(t.y,e.y,n.y,r.y,i)}),s&&(o.a=function(t,e,n,r,i){return Math.atan2(Dt(t.y,e.y,n.y,r.y,i),Dt(t.x,e.x,n.x,r.x,i))}(t,e,n,r,i)),o}function $t(t,e,n,r=!1){if(zt(e)){if(Gt(n))return Vt(e,n.start,n,t,r)}else if(zt(n)){if(Wt(e))return Vt(e,e.end,n,t,r)}else{if(Wt(e))return Gt(n)?Lt(e,e.end,n.start,n,t,r):Vt(e,e.end,n,t,r);if(Gt(n))return Vt(e,n.start,n,t,r)}return Pt(e,n,t,r)}function qt(t,e,n){const r=$t(t,e,n,!0);return r.a=o(function(t,e=!1){return e?t+Math.PI:t}(r.a)),r}function zt(t){return!t.type||"corner"===t.type}function Gt(t){return null!=t.start&&!zt(t)}function Wt(t){return null!=t.end&&!zt(t)}const Yt=new class{constructor(t=1,e=0,n=0,r=1,i=0,s=0){this.m=[t,e,n,r,i,s],this.i=null,this.w=null,this.s=null}get determinant(){const t=this.m;return t[0]*t[3]-t[1]*t[2]}get isIdentity(){if(null===this.i){const t=this.m;this.i=1===t[0]&&0===t[1]&&0===t[2]&&1===t[3]&&0===t[4]&&0===t[5]}return this.i}point(t,e){const n=this.m;return{x:n[0]*t+n[2]*e+n[4],y:n[1]*t+n[3]*e+n[5]}}translateSelf(t=0,e=0){if(!t&&!e)return this;const n=this.m;return n[4]+=n[0]*t+n[2]*e,n[5]+=n[1]*t+n[3]*e,this.w=this.s=this.i=null,this}rotateSelf(t=0){if(t%=360){t=s(t);const e=D(t),n=L(t),r=this.m,i=r[0],o=r[1];r[0]=i*n+r[2]*e,r[1]=o*n+r[3]*e,r[2]=r[2]*n-i*e,r[3]=r[3]*n-o*e,this.w=this.s=this.i=null}return this}scaleSelf(t=1,e=1){if(1!==t||1!==e){const n=this.m;n[0]*=t,n[1]*=t,n[2]*=e,n[3]*=e,this.w=this.s=this.i=null}return this}skewSelf(t,e){if(e%=360,(t%=360)||e){const n=this.m,r=n[0],i=n[1],o=n[2],u=n[3];t&&(t=z(s(t)),n[2]+=r*t,n[3]+=i*t),e&&(e=z(s(e)),n[0]+=o*e,n[1]+=u*e),this.w=this.s=this.i=null}return this}resetSelf(t=1,e=0,n=0,r=1,i=0,s=0){const o=this.m;return o[0]=t,o[1]=e,o[2]=n,o[3]=r,o[4]=i,o[5]=s,this.w=this.s=this.i=null,this}recomposeSelf(t=null,e=null,n=null,r=null,i=null){return this.isIdentity||this.resetSelf(),t&&(t.x||t.y)&&this.translateSelf(t.x,t.y),e&&this.rotateSelf(e),n&&(n.x&&this.skewSelf(n.x,0),n.y&&this.skewSelf(0,n.y)),!r||1===r.x&&1===r.y||this.scaleSelf(r.x,r.y),i&&(i.x||i.y)&&this.translateSelf(i.x,i.y),this}decompose(t=0,e=0){const r=this.m,i=r[0]*r[0]+r[1]*r[1],s=[[r[0],r[1]],[r[2],r[3]]];let u=W(i);if(0===u)return{origin:{x:n(r[4]),y:n(r[5])},translate:{x:n(t),y:n(e)},scale:{x:0,y:0},skew:{x:0,y:0},rotate:0};s[0][0]/=u,s[0][1]/=u;const l=r[0]*r[3]-r[1]*r[2]<0;l&&(u=-u);let a=s[0][0]*s[1][0]+s[0][1]*s[1][1];s[1][0]-=s[0][0]*a,s[1][1]-=s[0][1]*a;let c,f=W(s[1][0]*s[1][0]+s[1][1]*s[1][1]);return 0===f?{origin:{x:n(r[4]),y:n(r[5])},translate:{x:n(t),y:n(e)},scale:{x:n(u),y:0},skew:{x:0,y:0},rotate:0}:(s[1][0]/=f,s[1][1]/=f,a/=f,s[1][1]<0?(c=o($(s[1][1])),s[0][1]<0&&(c=360-c)):c=o(q(s[0][1])),l&&(c=-c),a=o(G(a,W(s[0][0]*s[0][0]+s[0][1]*s[0][1]))),l&&(a=-a),{origin:{x:n(r[4]),y:n(r[5])},translate:{x:n(t),y:n(e)},scale:{x:n(u),y:n(f)},skew:{x:n(a),y:0},rotate:n(c)})}multiply(t){return this.clone().multiplySelf(t)}preMultiply(t){return t.multiply(this)}multiplySelf(t){const{a:e,b:n,c:r,d:i,tx:s,ty:o}=Y(this.m,t.m);return this.resetSelf(e,n,r,i,s,o),this}preMultiplySelf(t){const{a:e,b:n,c:r,d:i,tx:s,ty:o}=Y(t.m,this.m);return this.resetSelf(e,n,r,i,s,o),this}clone(){const t=this.m;return new this.constructor(t[0],t[1],t[2],t[3],t[4],t[5])}static create(t){return t?Array.isArray(t)?new this(...t):t instanceof this?t.clone():(new this).recomposeSelf(t.origin,t.rotate,t.skew,t.scale,t.translate):new this}toString(t=" ",e=!1){if(null===this.s){let r=this.m.map((t=>n(t)));e||1!==r[0]||0!==r[1]||0!==r[2]||1!==r[3]?this.s="matrix("+r.join(t)+")":this.s="translate("+r[4]+t+r[5]+")"}return this.s}};var Ut={f:function(t){return t?t.join(" "):""},i:function(t,e,n){if(0===t)return e;if(1===t)return n;let r=e.length;if(r!==n.length)return U(t,e,n);let i,s=new Array(r);for(let o=0;o<r;o++){if(i=typeof e[o],i!==typeof n[o])return U(t,e,n);if("number"===i)s[o]=H(t,e[o],n[o]);else{if(e[o]!==n[o])return U(t,e,n);s[o]=e[o]}}return s}},Ht={f:null,i:et,u:(t,e)=>n=>{const r=e(n);t.setAttribute("x1",At(r[0])),t.setAttribute("y1",At(r[1])),t.setAttribute("x2",At(r[2])),t.setAttribute("y2",At(r[3]))}},Zt={f:At,i:H},Jt={f:At,i:J},Qt={f:function(t,e=" "){return t&&t.length>0&&(t=t.map((t=>n(t,4)))),_t(t,e)},i:function(t,e,r){let i=e.length,s=r.length;if(i!==s)if(0===i)i=s,e=nt(i,0);else if(0===s)s=i,r=nt(i,0);else{const t=function(t,e){const n=t*e/function(t,e){let n;for(;e;)n=e,e=t%e,t=n;return t||1}(t,e);return n<0?-n:n}(i,s);e=rt(e,Math.floor(t/i)),r=rt(r,Math.floor(t/s)),i=s=t}let o=[];for(let s=0;s<i;s++)o.push(n(Z(t,e[s],r[s])));return o}};function Xt(t,e,r){return t.map((t=>function(t,e,r){let i=t.v;if(!i||"g"!==i.t||i.s||!i.v||!i.r)return t;const s=r.getElementById(i.r),o=s&&s.querySelectorAll("stop")||[];return i.s=i.v.map(((t,e)=>{let r=o[e]&&o[e].getAttribute("offset");return r=n(parseInt(r)/100),{c:t,o:r}})),delete i.v,t}(t,0,r)))}const Kt={gt:"gradientTransform",c:{x:"cx",y:"cy"},rd:"r",f:{x:"x1",y:"y1"},to:{x:"x2",y:"y2"}};function te(t,e,n,r,i,s,o,u){return Xt(t,0,u),e=function(t,e,n){let r,i,s;const o=t.length-1,u={};for(let l=0;l<=o;l++)r=t[l],r.e&&(r.e=e(r.e)),r.v&&(i=r.v,"g"===i.t&&i.r&&(s=n.getElementById(i.r),s&&(u[i.r]={e:s,s:s.querySelectorAll("stop")})));return u}(t,r,u),r=>{const i=n(r,t,ee);if(!i)return"none";if("c"===i.t)return St(i.v);if("g"===i.t){if(!e[i.r])return Et(i.r);const t=e[i.r];return function(t,e){let n=t.s;for(let r=n.length;r<e.length;r++){const e=n[n.length-1].cloneNode();e.id=ie(e.id),t.e.appendChild(e),n=t.s=t.e.querySelectorAll("stop")}for(let t=0,r=n.length,i=e.length-1;t<r;t++)n[t].setAttribute("stop-color",St(e[Math.min(t,i)].c)),n[t].setAttribute("offset",e[Math.min(t,i)].o)}(t,i.s),Object.keys(Kt).forEach((e=>{if(void 0===i[e])return;if("object"==typeof Kt[e])return void Object.keys(Kt[e]).forEach((n=>{if(void 0===i[e][n])return;const r=i[e][n],s=Kt[e][n];t.e.setAttribute(s,r)}));const n="gt"===e?(r=i[e],Array.isArray(r)?"matrix("+r.join(" ")+")":""):i[e];var r;const s=Kt[e];t.e.setAttribute(s,n)})),Et(i.r)}return"none"}}function ee(t,e,n){if(0===t)return e;if(1===t)return n;if(e&&n){const r=e.t;if(r===n.t)switch(e.t){case"c":return{t:r,v:tt(t,e.v,n.v)};case"g":if(e.r===n.r){const i={t:r,s:ne(t,e.s,n.s),r:e.r};return e.gt&&n.gt&&(i.gt=et(t,e.gt,n.gt)),e.c?(i.c=Q(t,e.c,n.c),i.rd=Z(t,e.rd,n.rd)):e.f&&(i.f=Q(t,e.f,n.f),i.to=Q(t,e.to,n.to)),i}}if("c"===e.t&&"g"===n.t||"c"===n.t&&"g"===e.t){const r="c"===e.t?e:n,i="g"===e.t?{...e}:{...n},s=i.s.map((t=>({c:r.v,o:t.o})));return i.s="c"===e.t?ne(t,s,i.s):ne(t,i.s,s),i}}return U(t,e,n)}function ne(t,e,n){if(e.length===n.length)return e.map(((e,r)=>re(t,e,n[r])));const r=Math.max(e.length,n.length),i=[];for(let s=0;s<r;s++){const r=re(t,e[Math.min(s,e.length-1)],n[Math.min(s,n.length-1)]);i.push(r)}return i}function re(t,e,n){return{o:J(t,e.o,n.o||0),c:tt(t,e.c,n.c||{})}}function ie(t){return t.replace(/-fill-([0-9]+)$/,((t,e)=>"-fill-"+(+e+1)))}function se(t,e,n){return 0===t?e:1===t?n:{blur:X(t,e.blur,n.blur),offset:Q(t,e.offset,n.offset),color:tt(t,e.color,n.color)}}const oe={blur:X,brightness:Z,contrast:Z,"drop-shadow":se,"inner-shadow":se,grayscale:Z,"hue-rotate":H,invert:Z,opacity:Z,saturate:Z,sepia:Z};function ue(t,e,n){if(0===t)return e;if(1===t)return n;const r=e.length;if(r!==n.length)return U(t,e,n);const i=[];let s;for(let o=0;o<r;o++){if(e[o].type!==n[o].type)return e;if(s=oe[e[o].type],!s)return U(t,e,n);i.push({type:e.type,value:s(t,e[o].value,n[o].value)})}return i}const le={blur:t=>t?e=>{t.setAttribute("stdDeviation",kt(e))}:null,brightness:(t,e,n)=>(t=ce(n,e))?e=>{e=At(e),t.map((t=>t.setAttribute("slope",e)))}:null,contrast:(t,e,n)=>(t=ce(n,e))?e=>{const n=At((1-e)/2);e=At(e),t.map((t=>{t.setAttribute("slope",e),t.setAttribute("intercept",n)}))}:null,"drop-shadow"(t,e,n){const r=n.getElementById(e+"-blur");if(!r)return null;const i=n.getElementById(e+"-offset");if(!i)return null;const s=n.getElementById(e+"-flood");return s?t=>{r.setAttribute("stdDeviation",kt(t.blur)),i.setAttribute("dx",At(t.offset.x)),i.setAttribute("dy",At(t.offset.y)),s.setAttribute("flood-color",St(t.color))}:null},"inner-shadow"(t,e,n){const r=n.getElementById(e+"-blur");if(!r)return null;const i=n.getElementById(e+"-offset");if(!i)return null;const s=n.getElementById(e+"-color-matrix");return s?t=>{r.setAttribute("stdDeviation",kt(t.blur)),i.setAttribute("dx",At(t.offset.x)),i.setAttribute("dy",At(t.offset.y));const e=[0,0,0,0,t.color.r/255,0,0,0,0,t.color.g/255,0,0,0,0,t.color.b/255,0,0,0,t.color.a,0];s.setAttribute("values",_t(e))}:null},grayscale:t=>t?e=>{t.setAttribute("values",_t(function(t){return[.2126+.7874*(t=1-t),.7152-.7152*t,.0722-.0722*t,0,0,.2126-.2126*t,.7152+.2848*t,.0722-.0722*t,0,0,.2126-.2126*t,.7152-.7152*t,.0722+.9278*t,0,0,0,0,0,1,0]}(e)))}:null,"hue-rotate":t=>t?e=>t.setAttribute("values",At(e)):null,invert:(t,e,n)=>(t=ce(n,e))?e=>{e=At(e)+" "+At(1-e),t.map((t=>t.setAttribute("tableValues",e)))}:null,opacity:(t,e,n)=>(t=n.getElementById(e+"-A"))?e=>t.setAttribute("tableValues","0 "+At(e)):null,saturate:t=>t?e=>t.setAttribute("values",At(e)):null,sepia:t=>t?e=>t.setAttribute("values",_t(function(t){return[.393+.607*(t=1-t),.769-.769*t,.189-.189*t,0,0,.349-.349*t,.686+.314*t,.168-.168*t,0,0,.272-.272*t,.534-.534*t,.131+.869*t,0,0,0,0,0,1,0]}(e))):null};const ae=["R","G","B"];function ce(t,e){const n=ae.map((n=>t.getElementById(e+"-"+n)||null));return-1!==n.indexOf(null)?null:n}var fe={fill:te,"fill-opacity":Jt,stroke:te,"stroke-opacity":Jt,"stroke-width":Zt,"stroke-dashoffset":{f:At,i:H},"stroke-dasharray":Qt,opacity:Jt,transform:function(t,e,n,r){if(!(t=function(t,e){if(!t||"object"!=typeof t)return null;let n=!1;for(const r in t)t.hasOwnProperty(r)&&(t[r]&&t[r].length?(t[r].forEach((t=>{t.e&&(t.e=e(t.e))})),n=!0):delete t[r]);return n?t:null}(t,r)))return null;const i=(r,i,s,o=null)=>t[r]?n(i,t[r],s):e&&e[r]?e[r]:o;return e&&e.a&&t.o?e=>{const r=n(e,t.o,qt);return Yt.recomposeSelf(r,i("r",e,H,0)+r.a,i("k",e,Q),i("s",e,Q),i("t",e,Q)).toString()}:t=>Yt.recomposeSelf(i("o",t,$t,null),i("r",t,H,0),i("k",t,Q),i("s",t,Q),i("t",t,Q)).toString()},"#filter":function(t,e,n,r,i,s,o,u){if(!e.items||!t||!t.length)return null;const l=function(t,e){const n=(t=t.map((t=>t&&le[t[0]]?(e.getElementById(t[1]),le[t[0]](e.getElementById(t[1]),t[1],e)):null))).length;return e=>{for(let r=0;r<n;r++)t[r]&&t[r](e[r].value)}}(e.items,u);return l?(t=function(t,e){return t.map((t=>(t.e=e(t.e),t)))}(t,r),e=>{l(n(e,t,ue))}):null},"#line":Ht,points:{f:_t,i:et},d:Ut,r:Zt,"#size":Ot,"#radius":Mt,_(t,e){if(Array.isArray(t))for(let n=0;n<t.length;n++)this[t[n]]=e;else this[t]=e}};const he={currentTime:"offset",duration:"duration",hasEnded:function(){return this.reachedToEnd()},isAlternate:"alternate",isPlaying:"_running",isRollingBack:"_rollingBack",state:function(t,e){return e.isPlaying?e.isRollingBack?"rollback":"playing":e.hasEnded?"ended":"paused"},totalTime:"maxFiniteDuration",iterations:"iterations",direction:"direction",fill:"fill",isReversed:function(t,e){return-1===e.direction},isBackwards:function(t,e){return-1===e.fill},isInfinite:function(t,e){return 0===e.iterations},speed:"speed",fps:"fps"},de={destruct:"destruct",pause:"pause",play:function(t,e){return ge(t,e.hasEnded?"restart":"play",e)},restart:"restart",reverse:function(t,e){return ge(t,"reverse",e,[!0])},seek:"seek",seekBy:"seekBy",seekTo:"seekTo",stop:"stop",toggle:"toggle",togglePlay:"toggle",set:"set"};function ge(t,e,n,r=[]){return function(){const i=[...arguments];return i.unshift(...r),t[e].call(t,...i),n}}class pe{constructor(t){const e={},n=["on","off"],r={get:function(t,r,i){return he[r]?"function"==typeof he[r]?he[r].call(t,t,i):t[he[r]]:de[r]?"function"==typeof de[r]?de[r].call(t,t,i):ge(t,de[r],i):-1!==n.indexOf(r)?e[r]:"ready"===r?t=>(t&&t.call(i,i),i):void 0},set:function(t,r,i){return-1!==n.indexOf(r)&&(e[r]=i)},ownKeys:function(t){return Object.keys(he)},has:function(t,e){return void 0!==he[e]}};if("function"==typeof Proxy)return new Proxy(t,r);const i=Object.keys(he).concat(Object.keys(de)).concat(n),s={};return i.forEach((e=>{const i={enumerable:!1,configurable:!1,get:()=>r.get(t,e,s)};-1!==n.indexOf(e)&&(i.set=n=>r.set(t,e,n)),Object.defineProperty(s,e,i)})),s}}function ye(t){t||(t=this);let e={};this.on=function(t,n,r=!1){return"function"==typeof n&&(t.split(/[, ]+/g).forEach((t=>(e[t]=e[t]||[],r?e[t].unshift(n):e[t].push(n)))),!0)},this.off=function(t,n){for(let r in e)if(e.hasOwnProperty(r)&&r.substr(0,t.length)===t)if(n)for(let t=0;t<e[r].length;t++)e[r][t]===n&&(e[r][t]=null);else e[r]=null},this.trigger=function(){let n,[r,...i]=[...arguments];t:for(let s in e)if(e.hasOwnProperty(s)&&e[s]&&(s===r||s.substr(0,r.length+1)===r+"."))for(let r=0;r<(e[s]||[]).length;r++)if(e[s][r]&&(n=e[s][r].apply(t,i),!1===n))break t;return n}}let me=function(t,e,n=n){let r=!1,i=null;return function(s){r&&clearTimeout(r),r=setTimeout((()=>function(){let s=0,o=n.innerHeight,u=0,l=n.innerWidth,a=t.parentNode;for(;a instanceof Element;){let t=n.getComputedStyle(a);if("visible"!==t.overflowY||"visible"!==t.overflowX){let e=a.getBoundingClientRect();"visible"!==t.overflowY&&(s=Math.max(s,e.top),o=Math.min(o,e.bottom)),"visible"!==t.overflowX&&(u=Math.max(u,e.left),l=Math.min(l,e.right))}if(a===a.parentNode)break;a=a.parentNode}r=!1;let c=t.getBoundingClientRect(),f=Math.min(c.height,Math.max(0,s-c.top)),h=Math.min(c.height,Math.max(0,c.bottom-o)),d=Math.min(c.width,Math.max(0,u-c.left)),g=Math.min(c.width,Math.max(0,c.right-l)),p=(c.height-f-h)/c.height,y=(c.width-d-g)/c.width,m=Math.round(p*y*100);null!==i&&i===m||(i=m,e(m))}()),100)}};class ve{constructor(t,e,n){const r=function(t){var e,n;const r=t&&1===(null===(e=t.ownerDocument)||void 0===e||null===(n=e.childNodes)||void 0===n?void 0:n.length)&&window.parent!==window,i={el:t,window:window};if(!r)return i;let s;try{s=window.parent.document}catch(t){return i}return i.window=window.parent,i.el=Array.from(s.querySelectorAll("iframe,object")).filter((t=>t.contentWindow===window))[0]||i.el,i}(t);e=Math.max(1,e||1),e=Math.min(e,100),this.el=r.el,this._handlers=[],this.onThresholdChange=n&&n.call?n:()=>{},this.thresholdPercent=e||1,this.currentVisibility=null,this.visibilityCalculator=me(this.el,this.onVisibilityUpdate.bind(this),r.window),this.bindScrollWatchers(),this.visibilityCalculator()}bindScrollWatchers(){let t=this.el.parentNode;for(;t&&(this._handlers.push({element:t,event:"scroll",handler:this.visibilityCalculator}),t.addEventListener("scroll",this.visibilityCalculator),t!==t.parentNode&&t!==document);)t=t.parentNode}onVisibilityUpdate(t){let e=this.currentVisibility>=this.thresholdPercent,n=t>=this.thresholdPercent;if(null===this.currentVisibility||e!==n)return this.currentVisibility=t,void this.onThresholdChange(n);this.currentVisibility=t}destruct(){this._handlers.forEach((t=>{t.element.removeEventListener(t.event,t.handler)}))}}class be{static adjustLink(t){var e,n;const r=t&&1===(null===(e=t.ownerDocument)||void 0===e||null===(n=e.childNodes)||void 0===n?void 0:n.length)&&window.parent!==window,i=null==t?void 0:t.firstElementChild;r&&i&&"a"===i.tagName&&!i.getAttribute("target")&&i.setAttributeNS(null,"target","_parent")}static autoPlay(t,e,n,r=[]){if("click"===n.start){const i=()=>{switch(n.click){case"freeze":return!t._running&&t.reachedToEnd()?t.restart():t.toggle();case"restart":return t.offset>0?t.restart():t.play();case"reverse":return t._running?t.reverse():t.reachedToEnd()?1===t.fill?t.reverse(!0):t.restart():t.play();case"none":default:if(t._running)return;return t.reachedToEnd()?t.restart():t.play()}};return r.push({element:e,event:"click",handler:i}),void e.addEventListener("click",i)}if("hover"===n.start){const i=()=>t.reachedToEnd()?t.restart():t._rollingBack?t.reverse():t.play();r.push({element:e,event:"mouseenter",handler:i}),e.addEventListener("mouseenter",i);const s=()=>{switch(n.hover){case"freeze":return t.pause();case"reset":return t.stop();case"reverse":if(t.reverse(),t._running)return;return t.play();case"none":default:return}};return r.push({element:e,event:"mouseleave",handler:s}),void e.addEventListener("mouseleave",s)}if("scroll"!==n.start)"programmatic"!==n.start&&t.play();else{const i=new ve(e,n.scroll||25,(function(e){e?t.reachedToEnd()?t.restart():t.play():t.pause()}));r.push({callback:()=>i.destruct()})}}}const we=!0,xe=["iterations","speed","fps","direction","fill","alternate"];class Ae extends class{_svg;_rootId;constructor(t){this._id=0,this._running=!1,this._rollingBack=!1,this._animations=t.animations,this._settings=t.animationSettings,t.version<"2022-05-02"&&delete this._settings.speed,xt.forEach((t=>{this._settings[t.key]=this._settings[t.key]||t.def})),this.duration=t.animationSettings.duration,this.offset=t.animationSettings.offset||0,this.rollbackStartOffset=0,this._rootId=t.root,this._svg=t.svg,this._originalAnimations=t.originalAnimations,this._fTC=new N(this)}get svg(){return this._svg}get rootId(){return this._rootId}get alternate(){return this._settings.alternate}get fill(){return this._settings.fill}get iterations(){return this._settings.iterations}get direction(){return this._settings.direction}get speed(){return this._settings.speed}get fps(){return this._settings.fps}get wD(){return this._settings.w}get originalAnimations(){return this._originalAnimations}get maxFiniteDuration(){return this.iterations>0?this.iterations*this.duration:this.duration}static build(t,e){if(delete t.animationSettings,t.options=wt(t.options,t.root,"91c80d77"),t.animations.map((e=>{e.settings=wt(e.s,t.root,"91c80d77"),delete e.s,t.animationSettings||(t.animationSettings=e.settings)})),Object.assign(t,{originalAnimations:t.animations},function(t,e){if(ut=e,!t||!t.root||!Array.isArray(t.animations))return null;const n=mt(t);if(!n)return null;const r=t.animations.map((t=>yt(n,t))).filter((t=>!!t));return r.length?{svg:n,animations:r}:null}(t,e)),!t)return null;const n=t.options||{},r=new this(t);return{el:t.svg,options:n,player:r}}static push(t){return this.build(t)}static init(){const t=window.__SVGATOR_PLAYER__&&window.__SVGATOR_PLAYER__["91c80d77"];Array.isArray(t)&&t.splice(0).forEach((t=>this.build(t)))}_apply(t,e={}){const n=this._animations,r=n.length;let i=0;for(let s=0;s<r;s++)e[s]?i++:(e[s]=n[s](t,1),e[s]&&i++);return i}_rollback(t){let e=1/0,n=null;this.rollbackStartOffset=t,this._rollingBack=!0,this._running=!0;const r=i=>{if(!this._rollingBack)return;null==n&&(n=i);let s=Math.round(t-(i-n)*this.speed);if(s>this.duration&&e!==1/0){const t=!!this.alternate&&s/this.duration%2>1;let e=s%this.duration;e+=t?this.duration:0,s=e||this.duration}const o=(this.fps?1e3/this.fps:0)*this.speed,u=Math.max(0,s);u<=e-o&&(this.offset=u,e=u,this._apply(u));const l=this.iterations>0&&-1===this.fill&&s>=this.maxFiniteDuration;(s<=0||this.offset<s||l)&&this.stop(),this._id=window.requestAnimationFrame(r)};this._id=window.requestAnimationFrame(r)}_start(t=0){let e,n=-1/0;const r={};this._running=!0;const i=s=>{e??=s;const o=Math.round((s-e)*this.speed+t),u=(this.fps?1e3/this.fps:0)*this.speed;o>=n+u&&!this._rollingBack&&this._fTC.cF(s,(()=>{this.offset=o,n=o;if(this._apply(o,r)===this._animations.length)return this.pause(!0),!0}))||(this._id=window.requestAnimationFrame(i))};this._id=window.requestAnimationFrame(i)}_pause(){this._id&&window.cancelAnimationFrame(this._id),this._running=!1}play(){if(!this._running)return this._rollingBack?this._rollback(this.offset):this._start(this.offset)}stop(){this._pause(),this.offset=0,this.rollbackStartOffset=0,this._rollingBack=!1,this._apply(0)}reachedToEnd(){return this.iterations>0&&this.offset>=this.iterations*this.duration}restart(t=!1){this.stop(t),this.play(t)}pause(){this._pause()}toggle(){return this._running?this.pause():this.reachedToEnd()?this.restart():this.play()}trigger(t,e){}_adjustOffset(t=!1){const e=this.alternate?2*this.duration:this.duration;if(t){if(!this._rollingBack&&0===this.offset)return void(this.offset=e);this._rollingBack&&(this.offset,this.maxFiniteDuration)}!this._rollingBack||this.rollbackStartOffset<=this.duration?0!==this.iterations&&(this.offset=Math.min(this.offset,this.maxFiniteDuration)):(this.offset=this.rollbackStartOffset-(this.rollbackStartOffset-this.offset)%e,this.rollbackStartOffset=0)}reverse(t=!1){if(!this._running)return this._adjustOffset(t),this._rollingBack=!this._rollingBack,t&&this.play(!1),void this.trigger("reverse",this.offset);this.pause(!1,!1),this._adjustOffset(),this._rollingBack=!this._rollingBack,this.play(!1),this.trigger("reverse",this.offset)}}{constructor(t){super(t),this._handlers=[]}static build(t){let e=super.build(t,fe);if(!e)return null;let{el:n,options:r,player:i}=e;const s=new pe(i),o=new ye(s);s.on=o.on,s.off=o.off,i.trigger=o.trigger;const u=n.svgatorPlayer&&n.svgatorPlayer.ready&&n.svgatorPlayer.ready.call&&n.svgatorPlayer.ready.call();n.svgatorPlayer=s,be.adjustLink(n),be.autoPlay(i,n,r,i._handlers),function(t,e,n){let r;"function"==typeof Event?r=new Event("ready"):(r=document.createEvent("Event"),r.initEvent("ready",!0,!0));if(t.dispatchEvent(r),!n||!n.length)return;n.forEach((t=>e.ready(t)))}(n,n.svgatorPlayer,u)}play(t=true){const e=super.play();return t===we&&this.trigger("play",this.offset),e}pause(t=!1,e=true){const n=super.pause();return e===we&&this.trigger(t?"end":"pause",this.offset),n}restart(){const t=super.restart(!1);return this.trigger("restart",this.offset),t}stop(t=true){const e=super.stop();return t===we&&this.trigger("stop",this.offset),e}_apply(t,e={},n=true){const r=super._apply(t);if(n===we){const e=()=>this.trigger("keyframe",t);window.requestAnimationFrame(e)}return r}seekTo(t){const e=this._running;var n,r,i;e&&this.pause(!1,!1),this.offset=this.iterations>0?(n=t,r=0,i=this.maxFiniteDuration,n<r?r:n>i?i:n):Math.max(t,0),this._apply(this.offset),e&&this.play(!1)}seek(t){return this.seekTo(Math.round(t/100*this.maxFiniteDuration))}seekBy(t){return this.seekTo(this.offset+t)}set(t,e){if(!xe.includes(t))return;const n=this._running;n&&this.pause(!1,!1),this._settings[t]=e,n?this.play(!1):this._apply(this.offset,{},!1)}destruct(){this.stop(),this._handlers.forEach((t=>{t.element?t.element.removeEventListener(t.event,t.handler):t.callback&&t.callback.call&&t.callback.call()}));const t=()=>{},e=Object.getOwnPropertyNames(Object.getPrototypeOf(this));e.push(...Object.getOwnPropertyNames(this)),e.forEach((e=>{"function"==typeof this[e]?this[e]=t:delete this[e]}))}}return Ae.init(),Ae}));
(function(s,i,o,w,d,a,b){(a=Array.from(d.querySelectorAll('svg#' + i.root)).filter(n=> !n.svgatorPlayer)[0]||{}).svgatorPlayer={ready:(function(a){b=[];return function(c){return c?(b.push(c),a.svgatorPlayer):b}})(a)};w[o]=w[o]||{};w[o][s]=w[o][s]||[];w[o][s].push(i);})('91c80d77',{"root":"ePrx9iumCzF1","version":"2025-04-07","animations":[{"elements":{"ePrx9iumCzF3":{"transform":{"data":{"o":{"x":237,"y":369.000031,"type":"corner"},"t":{"x":-237,"y":-369.000031}},"keys":{"s":[{"t":2400,"v":{"x":0,"y":0},"e":[0.94,-0.01,0.55,0.95]},{"t":3400,"v":{"x":1,"y":1},"e":[0.94,-0.01,0.55,0.95]}]}}},"ePrx9iumCzF6":{"transform":{"data":{"r":45,"s":{"x":1.31778,"y":1.333712},"t":{"x":-15.804432,"y":-79.526923}},"keys":{"o":[{"t":3400,"v":{"x":102.822468,"y":323.680752,"type":"corner"},"e":[0.94,-0.01,0.55,0.95]},{"t":4500,"v":{"x":433.970362,"y":390.957343,"type":"corner"}}]}}},"ePrx9iumCzF9":{"opacity":[{"t":4500,"v":0},{"t":5000,"v":1}]},"ePrx9iumCzF17":{"transform":{"data":{"o":{"x":164.726502,"y":262.61261,"type":"corner"},"t":{"x":-164.726501,"y":-262.61261}},"keys":{"s":[{"t":700,"v":{"x":0,"y":0},"e":[0.94,-0.01,0.55,0.95]},{"t":1400,"v":{"x":1.2,"y":1.2},"e":[0.94,-0.01,0.55,0.95]},{"t":1700,"v":{"x":1,"y":1}}]}}},"ePrx9iumCzF26":{"transform":{"data":{"o":{"x":232.726501,"y":262.61261,"type":"corner"},"t":{"x":-232.726501,"y":-262.61261}},"keys":{"s":[{"t":1000,"v":{"x":0,"y":0},"e":[0.94,-0.01,0.55,0.95]},{"t":1700,"v":{"x":1.2,"y":1.2},"e":[0.94,-0.01,0.55,0.95]},{"t":2000,"v":{"x":1,"y":1}}]}}},"ePrx9iumCzF35":{"transform":{"data":{"o":{"x":300.726501,"y":262.61261,"type":"corner"},"t":{"x":-300.726501,"y":-262.61261}},"keys":{"s":[{"t":1300,"v":{"x":0,"y":0},"e":[0.94,-0.01,0.55,0.95]},{"t":2000,"v":{"x":1.2,"y":1.2},"e":[0.94,-0.01,0.55,0.95]},{"t":2300,"v":{"x":1,"y":1}}]}}}},"s":"MDDA1ZGJkNjRhNNmI3YjRhM2I2WYWJiMWIwNjQE3Yzc3Nzc3MjLcyNmU2NGE2YAWJiNGE3YTViRNk5hYmIxYjAS2NFQ3YzczNmCU2NGFiYjZhNW2I0YTNiNmFiGYjFMYjBiNTYD0N2M3MzZlNjFRhOGFiYWVhZXTY0N2M3MzZlPNjRhM2FlYjZWhN0tiNGIwYTLNBYjZhNzY0NR2NhOGEzYWViQNWE3NmU2NGIT1YjJhN2E3YTAY2NEE3Yzc0NSmU2NGE4YjJiONTY0N2M3MzcOyNzJiZg|"}],"options":"MDYAxMFQ4MjI5NO2E3YkU2ODc5TN2IyOVk0MTIX5NzM3NjY4NmMIyOTg0"},'__SVGATOR_PLAYER__',window,document)
]]></script>
</svg>
